<svg xmlns="http://www.w3.org/2000/svg" width="18.5" height="21.167" viewBox="0 0 18.5 21.167">
  <g id="location-pin-building" transform="translate(0.75 0.75)">
    <path id="Path" d="M.5,0V2" transform="translate(8 3.5)" fill="none" stroke="#96c72c" stroke-linecap="round" stroke-linejoin="round" stroke-miterlimit="10" stroke-width="1.5"/>
    <path id="Path-2" data-name="Path" d="M0,3V1A1,1,0,0,1,1,0H4A1,1,0,0,1,5,1V3" transform="translate(6 5.5)" fill="none" stroke="#96c72c" stroke-linecap="round" stroke-linejoin="round" stroke-miterlimit="10" stroke-width="1.5"/>
    <path id="Path-3" data-name="Path" d="M9,3.5V1A1,1,0,0,0,8,0H1A1,1,0,0,0,0,1V3.5" transform="translate(4 8.5)" fill="none" stroke="#96c72c" stroke-linecap="round" stroke-linejoin="round" stroke-miterlimit="10" stroke-width="1.5"/>
    <path id="Path-4" data-name="Path" d="M0,8.5H0A8.5,8.5,0,0,1,8.5,0h0A8.5,8.5,0,0,1,17,8.5h0a8.035,8.035,0,0,1-2.354,5.682L9.914,18.914a2,2,0,0,1-2.828,0L2.354,14.182A8.035,8.035,0,0,1,0,8.5Z" fill="none" stroke="#96c72c" stroke-linecap="round" stroke-linejoin="round" stroke-miterlimit="10" stroke-width="1.5"/>
  </g>
</svg>
