<svg xmlns="http://www.w3.org/2000/svg" width="68" height="58.132" viewBox="0 0 68 58.132">
  <g id="cold_chain" data-name="cold chain" transform="translate(1.5 1.5)">
    <path id="path2678" d="M-2.28,12.973l.679-.512A4.021,4.021,0,0,0,0,9.251H0A4.025,4.025,0,0,0-.838,6.8L-6.086,0" transform="translate(23.625 54.528) rotate(-180)" fill="none" stroke="#96c72c" stroke-linecap="round" stroke-linejoin="round" stroke-miterlimit="10" stroke-width="3"/>
    <path id="path2680" d="M-3.744,5.132V17.561a1.872,1.872,0,0,0,1.871,1.871h0A1.872,1.872,0,0,0,0,17.561V0" transform="translate(28.232 44.493) rotate(-180)" fill="none" stroke="#96c72c" stroke-linecap="round" stroke-linejoin="round" stroke-miterlimit="10" stroke-width="3"/>
    <path id="path2682" d="M-1.639,0V5.229A1.873,1.873,0,0,0,0,7.086" transform="translate(34.081 39.391) rotate(-180)" fill="none" stroke="#96c72c" stroke-linecap="round" stroke-linejoin="round" stroke-miterlimit="10" stroke-width="3"/>
    <path id="path2684" d="M-1.372,0V3.3A1.871,1.871,0,0,0,0,5.105" transform="translate(38.089 39.571) rotate(-180)" fill="none" stroke="#96c72c" stroke-linecap="round" stroke-linejoin="round" stroke-miterlimit="10" stroke-width="3"/>
    <path id="path2686" d="M-.385,0-.933,2.45a18.727,18.727,0,0,0-.45,4.081v10.3A1.873,1.873,0,0,0,0,18.642" transform="translate(41.822 54.62) rotate(-180)" fill="none" stroke="#96c72c" stroke-linecap="round" stroke-linejoin="round" stroke-miterlimit="10" stroke-width="3"/>
    <path id="path2688" d="M-24.162,0H-4.078A4.077,4.077,0,0,1,0,4.078V35.763a4.079,4.079,0,0,1-4.078,4.078H-60.922A4.079,4.079,0,0,1-65,35.763V4.078A4.077,4.077,0,0,1-60.922,0h14.065" transform="translate(0 39.841) rotate(-180)" fill="none" stroke="#96c72c" stroke-linecap="round" stroke-linejoin="round" stroke-miterlimit="10" stroke-width="3"/>
    <path id="path2690" d="M-2.342,1.518A8.335,8.335,0,0,1,0,7.321a8.351,8.351,0,0,1-8.353,8.353,8.353,8.353,0,0,1-8.353-8.353A8.351,8.351,0,0,1-12.377,0" transform="translate(23.191 24.671) rotate(-180)" fill="none" stroke="#96c72c" stroke-linecap="round" stroke-linejoin="round" stroke-miterlimit="10" stroke-width="3"/>
    <path id="path2692" d="M-4.084,2.043A2.041,2.041,0,0,1-2.043,0,2.042,2.042,0,0,1,0,2.043a2.041,2.041,0,0,1-2.043,2.04A2.041,2.041,0,0,1-4.084,2.043Z" transform="translate(29.396 22.725) rotate(-180)" fill="none" stroke="#96c72c" stroke-linecap="round" stroke-linejoin="round" stroke-miterlimit="10" stroke-width="3"/>
    <path id="path2694" d="M-.05,7.412V0" transform="translate(31.426 18.642) rotate(-180)" fill="none" stroke="#96c72c" stroke-linecap="round" stroke-linejoin="round" stroke-miterlimit="10" stroke-width="3"/>
    <path id="path2696" d="M-15.685,7.841A7.842,7.842,0,0,1-7.841,0,7.84,7.84,0,0,1,0,7.841a7.842,7.842,0,0,1-7.841,7.844A7.844,7.844,0,0,1-15.685,7.841Z" transform="translate(3.652 19.922) rotate(-180)" fill="none" stroke="#96c72c" stroke-linecap="round" stroke-linejoin="round" stroke-miterlimit="10" stroke-width="3"/>
    <path id="path2698" d="M-6.086,3.043A3.043,3.043,0,0,1-3.043,0,3.045,3.045,0,0,1,0,3.043c0,1.682-3.043,6.2-3.043,6.2S-6.086,4.725-6.086,3.043Z" transform="translate(8.45 16.704) rotate(-180)" fill="none" stroke="#96c72c" stroke-linecap="round" stroke-linejoin="round" stroke-miterlimit="10" stroke-width="3"/>
    <path id="path2700" d="M0,1.657A5.333,5.333,0,0,1-2.248,5.07a5.054,5.054,0,0,1-3.978.523A5.77,5.77,0,0,1-9.294,3.684,7.2,7.2,0,0,1-6.774,1.01,5.6,5.6,0,0,1-3.17.026,5.089,5.089,0,0,1,0,1.657Z" transform="translate(52.375 11.113) rotate(-180)" fill="none" stroke="#96c72c" stroke-linecap="round" stroke-linejoin="round" stroke-miterlimit="10" stroke-width="3"/>
    <path id="path2702" d="M-9.294,1.657A5.333,5.333,0,0,0-7.046,5.07a5.042,5.042,0,0,0,3.978.523A5.77,5.77,0,0,0,0,3.684,7.2,7.2,0,0,0-2.52,1.01a5.6,5.6,0,0,0-3.6-.984A5.089,5.089,0,0,0-9.294,1.657Z" transform="translate(43.081 11.113) rotate(-180)" fill="none" stroke="#96c72c" stroke-linecap="round" stroke-linejoin="round" stroke-miterlimit="10" stroke-width="3"/>
    <path id="path2704" d="M-.05,9.375V0" transform="translate(52.361 18.83) rotate(-180)" fill="none" stroke="#96c72c" stroke-linecap="round" stroke-linejoin="round" stroke-miterlimit="10" stroke-width="3"/>
    <path id="path2706" d="M-4.051.05H0" transform="translate(57.62 30.569) rotate(-180)" fill="none" stroke="#96c72c" stroke-linecap="round" stroke-linejoin="round" stroke-miterlimit="10" stroke-width="3"/>
    <path id="path2708" d="M0,.05H-6.973" transform="translate(47.129 30.569) rotate(-180)" fill="none" stroke="#96c72c" stroke-linecap="round" stroke-linejoin="round" stroke-miterlimit="10" stroke-width="3"/>
    <path id="path2710" d="M-.05,0V4.588" transform="translate(57.606 32.776) rotate(-180)" fill="none" stroke="#96c72c" stroke-linecap="round" stroke-linejoin="round" stroke-miterlimit="10" stroke-width="3"/>
    <path id="path2712" d="M-4.049.05H0" transform="translate(4.741 30.936) rotate(-180)" fill="none" stroke="#96c72c" stroke-linecap="round" stroke-linejoin="round" stroke-miterlimit="10" stroke-width="3"/>
    <path id="path2714" d="M-7.27.05H0" transform="translate(12.011 30.938) rotate(-180)" fill="none" stroke="#96c72c" stroke-linecap="round" stroke-linejoin="round" stroke-miterlimit="10" stroke-width="3"/>
    <path id="path2716" d="M-.05,0V4.59" transform="translate(8.779 33.146) rotate(-180)" fill="none" stroke="#96c72c" stroke-linecap="round" stroke-linejoin="round" stroke-miterlimit="10" stroke-width="3"/>
  </g>
</svg>
