<svg xmlns="http://www.w3.org/2000/svg" width="67.997" height="68" viewBox="0 0 67.997 68">
  <g id="Group_6" data-name="Group 6" transform="translate(1.5 1.5)">
    <path id="path1230" d="M-60.58,14.622l-3.777,7.712,7.51,4.505a24.876,24.876,0,0,0-.36,9.442L-65,39.716l2.782,8.124,8.5-2.126a24.83,24.83,0,0,0,6.423,6.93l-3.082,7.938,7.712,3.777,4.5-7.51a24.882,24.882,0,0,0,9.443.36L-25.284,65l8.124-2.782-2.126-8.5A24.84,24.84,0,0,0-12.353,47.3l7.938,3.082L-.64,42.667l-7.51-4.506a24.876,24.876,0,0,0,.36-9.442L0,25.285l-2.782-8.123-8.5,2.125a24.842,24.842,0,0,0-6.42-6.931l3.079-7.938L-22.333.643l-4.5,7.51a24.827,24.827,0,0,0-9.443-.36L-39.713,0l-8.124,2.785,2.126,8.5A24.834,24.834,0,0,0-52.644,17.7Z" transform="translate(0 65) rotate(-180)" fill="none" stroke="#96c72c" stroke-linecap="round" stroke-linejoin="round" stroke-miterlimit="10" stroke-width="3"/>
    <path id="path1232" d="M-34.874,10.3A18.372,18.372,0,0,1-10.3,1.875,18.371,18.371,0,0,1-1.875,26.451,18.37,18.37,0,0,1-26.45,34.874,18.372,18.372,0,0,1-34.874,10.3Z" transform="translate(14.124 50.874) rotate(-180)" fill="none" stroke="#96c72c" stroke-linecap="round" stroke-linejoin="round" stroke-miterlimit="10" stroke-width="3"/>
    <path id="path1234" d="M0,2.553A8.193,8.193,0,0,1-3.458,7.8a7.757,7.757,0,0,1-6.126.8,8.893,8.893,0,0,1-4.723-2.935,11.14,11.14,0,0,1,3.881-4.116A8.639,8.639,0,0,1-4.878.041,7.828,7.828,0,0,1,0,2.553Z" transform="translate(32.5 33.074) rotate(-180)" fill="none" stroke="#96c72c" stroke-linecap="round" stroke-linejoin="round" stroke-miterlimit="10" stroke-width="3"/>
    <path id="path1236" d="M-14.307,2.553A8.189,8.189,0,0,0-10.846,7.8a7.751,7.751,0,0,0,6.123.8A8.881,8.881,0,0,0,0,5.673,11.138,11.138,0,0,0-3.881,1.556,8.634,8.634,0,0,0-9.429.041,7.838,7.838,0,0,0-14.307,2.553Z" transform="translate(18.19 33.074) rotate(-180)" fill="none" stroke="#96c72c" stroke-linecap="round" stroke-linejoin="round" stroke-miterlimit="10" stroke-width="3"/>
    <path id="path1238" d="M-.05,8.588V0" transform="translate(32.484 39.109) rotate(-180)" fill="none" stroke="#96c72c" stroke-linecap="round" stroke-linejoin="round" stroke-miterlimit="10" stroke-width="3"/>
    <path id="path1240" d="M0,0A5.029,5.029,0,0,1-5.025,4.862,5.023,5.023,0,0,1-7.11,4.408a7.112,7.112,0,0,1-5.458,2.549,7.131,7.131,0,0,1-6.442-4.078,3.663,3.663,0,0,1-2.079.644A3.688,3.688,0,0,1-24.777,0" transform="translate(20.109 46.066) rotate(-180)" fill="none" stroke="#96c72c" stroke-linecap="round" stroke-linejoin="round" stroke-miterlimit="10" stroke-width="3"/>
  </g>
</svg>
