<svg id="email-letter-open-mail" xmlns="http://www.w3.org/2000/svg" width="24" height="24" viewBox="0 0 24 24">
  <path id="Path" d="M0,0H24V24H0Z" fill="none"/>
  <path id="Path-2" data-name="Path" d="M10,2.948V1A1,1,0,0,0,9,0H1A1,1,0,0,0,0,1V2.95" transform="translate(7 10)" fill="none" stroke="#96c72c" stroke-linecap="round" stroke-linejoin="round" stroke-miterlimit="10" stroke-width="1.5"/>
  <path id="Path-3" data-name="Path" d="M0,0,7.2,5.4a3,3,0,0,0,3.6,0L18,0" transform="translate(3 10)" fill="none" stroke="#96c72c" stroke-linecap="round" stroke-linejoin="round" stroke-miterlimit="10" stroke-width="1.5"/>
  <path id="Path-4" data-name="Path" d="M17.216,5.513,10.824.618a3,3,0,0,0-3.648,0L.784,5.513A2,2,0,0,0,0,7.1V15a3,3,0,0,0,3,3H15a3,3,0,0,0,3-3V7.1A2,2,0,0,0,17.216,5.513Z" transform="translate(3 3)" fill="none" stroke="#96c72c" stroke-linecap="round" stroke-linejoin="round" stroke-miterlimit="10" stroke-width="1.5"/>
</svg>
