<?xml version="1.0" encoding="UTF-8"?>
<svg width="206px" height="25px" viewBox="0 0 206 25" version="1.1" xmlns="http://www.w3.org/2000/svg" xmlns:xlink="http://www.w3.org/1999/xlink">
    <title>Global Gap</title>
    <g id="Page-1" stroke="none" stroke-width="1" fill="none" fill-rule="evenodd">
        <g id="Home" transform="translate(-1344, -1859)" fill="#373938" fill-rule="nonzero">
            <g id="Certifications" transform="translate(370, 1839)">
                <path d="M986.717125,35.747125 L986.717125,30.892125 L999.187125,30.892125 C999.197125,31.050875 999.204625,31.225875 999.210875,31.415875 C999.215875,31.604625 999.218375,31.884625 999.218375,32.254625 C999.218375,36.248375 998.162125,39.345875 996.050875,41.547125 C993.938375,43.749625 990.965875,44.850875 987.134625,44.850875 C985.249625,44.850875 983.574625,44.567125 982.108375,44.000875 C980.642125,43.434625 979.332125,42.568375 978.178375,41.403375 C977.077125,40.292125 976.223375,38.975875 975.613375,37.455875 C975.004625,35.937125 974.700875,34.345875 974.700875,32.682125 C974.700875,30.945875 974.997125,29.349625 975.589625,27.893375 C976.182125,26.437125 977.065875,25.127125 978.242125,23.960875 C979.405875,22.829625 980.742125,21.970875 982.249625,21.388375 C983.757125,20.805875 985.385875,20.514625 987.132125,20.514625 C989.408375,20.514625 991.420875,20.964625 993.173375,21.865875 C994.925875,22.765875 996.398375,24.107125 997.595875,25.887125 L992.090875,28.585875 C991.434625,27.664625 990.695875,26.979625 989.877125,26.529625 C989.057125,26.080875 988.138375,25.854625 987.123375,25.854625 C985.228375,25.854625 983.737125,26.487125 982.647125,27.750875 C981.557125,29.015875 981.012125,30.742125 981.012125,32.932125 C981.012125,35.143375 981.557125,36.883375 982.647125,38.152125 C983.737125,39.422125 985.229625,40.055875 987.123375,40.055875 C988.732125,40.055875 990.073375,39.664625 991.147125,38.879625 C992.220875,38.097125 992.848375,37.052125 993.028375,35.747125 L986.717125,35.747125 Z M1001.78511,44.30409 L1001.78511,21.06034 L1008.09636,21.06034 L1008.09636,38.84159 L1015.98636,38.84159 L1015.98636,44.30409 L1001.78511,44.30409 Z M1041.05738,32.712625 C1041.05738,34.385125 1040.74863,35.952625 1040.13488,37.413875 C1039.51988,38.875125 1038.62363,40.182625 1037.44862,41.336375 C1036.26112,42.480125 1034.90363,43.362625 1033.37738,43.981375 C1031.85113,44.601375 1030.26613,44.911375 1028.62363,44.911375 C1026.95988,44.911375 1025.36738,44.601375 1023.84613,43.981375 C1022.32613,43.362625 1020.98613,42.480125 1019.83113,41.336375 C1018.63363,40.182625 1017.72613,38.870125 1017.10488,37.397625 C1016.48488,35.926375 1016.17488,34.363875 1016.17488,32.712625 C1016.17488,31.050125 1016.48488,29.485125 1017.10488,28.018875 C1017.72613,26.552625 1018.63363,25.242625 1019.83113,24.087625 C1020.98613,22.945125 1022.32613,22.063875 1023.84613,21.443875 C1025.36738,20.823875 1026.95988,20.513875 1028.62363,20.513875 C1030.27738,20.513875 1031.86988,20.823875 1033.40238,21.443875 C1034.93363,22.063875 1036.28238,22.945125 1037.44862,24.087625 C1038.61363,25.231375 1039.50738,26.538875 1040.12738,28.011375 C1040.74738,29.482625 1041.05738,31.050125 1041.05738,32.712625 M1028.64612,39.570125 C1030.40863,39.570125 1031.86613,38.921375 1033.01863,37.625125 C1034.16988,36.327625 1034.74613,34.690125 1034.74613,32.712625 C1034.74613,30.756375 1034.16113,29.123875 1032.99363,27.816375 C1031.82488,26.508875 1030.37613,25.855125 1028.64612,25.855125 C1026.88363,25.855125 1025.42613,26.506375 1024.27488,27.808875 C1023.12363,29.112625 1022.54738,30.746375 1022.54738,32.712625 C1022.54738,34.711375 1023.11488,36.355125 1024.25113,37.640125 C1025.38738,38.927625 1026.85238,39.570125 1028.64612,39.570125 M1054.934,21.314125 C1055.979,21.482875 1056.87775,21.774125 1057.6315,22.186625 C1058.49025,22.662875 1059.14525,23.300375 1059.5965,24.099125 C1060.04775,24.896625 1060.27275,25.820375 1060.27275,26.866625 C1060.27275,28.189125 1059.9365,29.237875 1059.26275,30.015375 C1058.59025,30.792875 1057.51775,31.382875 1056.044,31.784125 C1057.69275,31.911625 1058.98025,32.491625 1059.91025,33.524125 C1060.839,34.556625 1061.30525,35.936625 1061.30525,37.662875 C1061.30525,38.902875 1061.04275,39.992875 1060.51775,40.935375 C1059.994,41.879125 1059.244,42.609125 1058.27025,43.127875 C1057.4765,43.551625 1056.49525,43.854125 1055.3315,44.034125 C1054.1665,44.214125 1052.259,44.304125 1049.6115,44.304125 L1043.03775,44.304125 L1043.03775,21.060375 L1049.419,21.060375 C1052.05025,21.060375 1053.889,21.145375 1054.934,21.314125 Z M1077.00775,21.060375 L1085.04025,44.304125 L1078.739,44.304125 L1077.564,40.177875 L1068.564,40.177875 L1067.35775,44.304125 L1061.06775,44.304125 L1069.0715,21.060375 L1077.00775,21.060375 Z M1051.25775,34.472875 L1048.924,34.472875 L1048.924,39.570375 L1051.1615,39.570375 C1052.66775,39.570375 1053.73275,39.381625 1054.35775,39.002875 C1054.984,38.625375 1055.2965,37.994125 1055.2965,37.110375 C1055.2965,36.129125 1055.01025,35.444125 1054.43775,35.055375 C1053.86525,34.666625 1052.80525,34.472875 1051.25775,34.472875 Z M1073.0715,24.825375 C1072.934,25.397875 1072.799,25.942875 1072.6665,26.461625 C1072.534,26.980375 1072.399,27.477875 1072.26275,27.954125 L1069.929,35.625375 L1076.23025,35.625375 L1073.86525,27.954125 C1073.7915,27.721625 1073.6915,27.345375 1073.564,26.826625 C1073.4365,26.307875 1073.27275,25.640375 1073.0715,24.825375 Z M1050.299,25.672875 L1048.924,25.672875 L1048.924,30.345375 L1050.20275,30.345375 C1051.779,30.345375 1052.86025,30.174125 1053.4465,29.830375 C1054.03275,29.487875 1054.32525,28.894125 1054.32525,28.049125 C1054.32525,27.172875 1054.05025,26.557875 1053.50275,26.204125 C1052.954,25.850375 1051.8865,25.672875 1050.299,25.672875 Z M1086.31437,44.30409 L1086.31437,21.06034 L1092.62562,21.06034 L1092.62562,38.84159 L1100.51562,38.84159 L1100.51562,44.30409 L1086.31437,44.30409 Z M1114.76963,32.28775 L1124.37213,32.28775 L1124.37213,33.069 C1124.37213,36.7315 1123.33463,39.62025 1121.26088,41.7365 C1119.18713,43.85275 1116.35712,44.9115 1112.77088,44.9115 C1111.68088,44.9115 1110.64088,44.794 1109.65213,44.5615 C1108.66213,44.32775 1107.74963,43.99025 1106.91463,43.544 C1105.00963,42.4965 1103.53838,41.049 1102.50213,39.20025 C1101.46463,37.35275 1100.94713,35.254 1100.94713,32.90275 C1100.94713,30.9665 1101.25588,29.2165 1101.87463,27.654 C1102.49213,26.0915 1103.42713,24.71775 1104.67463,23.5315 C1105.72088,22.5365 1106.93713,21.78525 1108.32213,21.2765 C1109.70838,20.76775 1111.24088,20.514 1112.92338,20.514 C1115.15463,20.514 1117.08963,20.919 1118.72963,21.7265 C1120.36838,22.5365 1121.72713,23.754 1122.80588,25.3815 L1120.47963,27.25025 C1119.64338,25.83525 1118.60213,24.77275 1117.35463,24.064 C1116.10712,23.3565 1114.65713,23.00275 1113.00838,23.00275 C1110.31213,23.00275 1108.12338,23.91525 1106.44213,25.7415 C1104.76088,27.5665 1103.92088,29.954 1103.92088,32.90275 C1103.92088,35.684 1104.77463,37.9665 1106.48212,39.749 C1108.18838,41.5315 1110.36463,42.42275 1113.00838,42.42275 C1115.33463,42.42275 1117.27213,41.71525 1118.82213,40.30025 C1120.36963,38.88525 1121.22963,37.044 1121.39838,34.7765 L1114.76963,34.7765 L1114.76963,32.28775 Z M1126.3,42.749875 C1126.3,42.227375 1126.48625,41.778625 1126.8575,41.404875 C1127.22875,41.031125 1127.675,40.844875 1128.195,40.844875 C1128.72625,40.844875 1129.18,41.029875 1129.5575,41.397375 C1129.935,41.766125 1130.12375,42.217375 1130.12375,42.749875 C1130.12375,43.273625 1129.9375,43.714875 1129.56625,44.072375 C1129.19375,44.428625 1128.7375,44.607375 1128.195,44.607375 C1127.665,44.607375 1127.215,44.428625 1126.84875,44.072375 C1126.4825,43.714875 1126.3,43.273625 1126.3,42.749875 M1143.1135,20.15009 L1153.67475,44.30384 L1150.67725,44.30384 L1147.66475,37.14259 L1138.5935,37.14259 L1135.581,44.30384 L1132.556,44.30384 L1143.1135,20.15009 Z M1143.1135,26.24384 L1139.4185,34.77634 L1146.8085,34.77634 L1143.1135,26.24384 Z M1156.22413,42.749875 C1156.22413,42.227375 1156.41038,41.778625 1156.78163,41.404875 C1157.15288,41.031125 1157.59913,40.844875 1158.11913,40.844875 C1158.65038,40.844875 1159.10413,41.029875 1159.48163,41.397375 C1159.85913,41.766125 1160.04788,42.217375 1160.04788,42.749875 C1160.04788,43.273625 1159.86163,43.714875 1159.49038,44.072375 C1159.11788,44.428625 1158.66163,44.607375 1158.11913,44.607375 C1157.58913,44.607375 1157.13913,44.428625 1156.77288,44.072375 C1156.40663,43.714875 1156.22413,43.273625 1156.22413,42.749875 M1178.051,40.844875 C1178.58225,40.844875 1179.036,41.029875 1179.4135,41.397375 C1179.791,41.766125 1179.97975,42.217375 1179.97975,42.749875 C1179.97975,43.273625 1179.7935,43.714875 1179.42225,44.072375 C1179.04975,44.428625 1178.5935,44.607375 1178.051,44.607375 C1177.521,44.607375 1177.071,44.428625 1176.70475,44.072375 C1176.3385,43.714875 1176.156,43.273625 1176.156,42.749875 C1176.156,42.227375 1176.34225,41.778625 1176.7135,41.404875 C1177.08475,41.031125 1177.531,40.844875 1178.051,40.844875 Z M1169.29863,21.06075 C1170.99738,21.06075 1172.24988,21.15075 1173.05238,21.33075 C1173.85488,21.51075 1174.55238,21.807 1175.14363,22.2195 C1175.88238,22.74825 1176.46113,23.47325 1176.87738,24.39325 C1177.29488,25.31325 1177.50363,26.3345 1177.50363,27.45575 C1177.50363,28.577 1177.29488,29.59825 1176.87738,30.517 C1176.46113,31.43825 1175.88238,32.16325 1175.14363,32.692 C1174.55238,33.1145 1173.85738,33.41575 1173.05988,33.597 C1172.26238,33.777 1171.00988,33.86575 1169.29863,33.86575 L1167.12613,33.86575 L1167.12613,44.3045 L1164.39488,44.3045 L1164.39488,21.06075 L1169.29863,21.06075 Z M1168.52113,23.6095 L1167.12613,23.6095 L1167.12613,31.377 L1168.52113,31.377 C1170.88738,31.377 1172.48238,31.10075 1173.30113,30.54575 C1174.11988,29.99075 1174.52988,29.02075 1174.52988,27.63575 C1174.52988,26.157 1174.10863,25.11575 1173.26863,24.51325 C1172.42863,23.91075 1170.84613,23.6095 1168.52113,23.6095 Z" id="Global-Gap"></path>
            </g>
        </g>
    </g>
</svg>