<?xml version="1.0" encoding="UTF-8"?>
<svg width="45px" height="51px" viewBox="0 0 45 51" version="1.1" xmlns="http://www.w3.org/2000/svg" xmlns:xlink="http://www.w3.org/1999/xlink">
    <title>HACCP</title>
    <g id="Page-1" stroke="none" stroke-width="1" fill="none" fill-rule="evenodd">
        <g id="Home" transform="translate(-1194, -1847)" fill="#373938" fill-rule="nonzero">
            <g id="Certifications" transform="translate(370, 1839)">
                <path d="M846.465432,58.0133614 C845.373706,58.0083576 844.30095,57.7162395 843.355663,57.1650087 L827.091019,47.6779981 C825.17203,46.5588442 823.992746,44.4977042 824.000034,42.2760888 L824.062437,23.5126202 C824.069986,21.2822793 825.272489,19.221898 827.211015,18.1186778 L843.537649,8.8281071 C845.474696,7.72591124 847.857925,7.74302101 849.778772,8.87329057 L865.890187,18.3554073 L865.890187,18.3554073 C867.794267,19.4756993 868.963877,21.5254581 868.96047,23.7345541 L868.930113,42.2882288 C868.926699,44.493531 867.754432,46.5360817 865.85225,47.6518213 L865.85225,47.6518213 L849.646712,57.1570419 C848.746305,57.6851308 847.727496,57.9787664 846.684179,58.0102545 C846.611263,58.0125307 846.538423,58.0133614 846.465621,58.0133614 L846.465432,58.0133614 Z M846.474878,55.9187645 L846.475106,55.9187645 C846.5234,55.9187645 846.571846,55.9187645 846.620216,55.9164882 C847.312764,55.8956227 847.988733,55.7010037 848.586399,55.3504619 L864.791899,45.8452413 C866.056733,45.1031854 866.832553,43.7514751 866.834829,42.2848144 L866.865179,23.7315191 L826.157037,23.5198283 L826.094609,42.2829176 C826.089888,43.7602007 826.870071,45.1244303 828.146134,45.8687625 L844.410817,55.3557732 C845.03834,55.7214899 845.750197,55.9153501 846.474878,55.9187645 L846.474878,55.9187645 Z M851.494075,46.9761862 C849.222458,46.9829845 847.042687,45.8403095 846.837105,42.0165969 C847.999279,43.9476116 849.057733,45.0246549 851.417441,45.5451563 L852.183018,45.644173 L851.247102,45.2712482 C849.316429,44.4889785 847.567817,43.0071429 846.653563,40.8420543 L846.540396,40.5472806 L844.056368,43.9464734 L843.885459,42.1452047 L846.730273,38.6511683 C846.917608,39.4194011 847.039387,40.1432471 847.37813,40.8777155 C847.758453,41.6319114 847.762322,41.6341877 848.865353,41.7434475 C850.614837,41.9331346 854.191425,41.6178746 855.882296,45.7204272 C854.858365,46.3543615 853.15194,46.9712239 851.494075,46.9761862 Z M848.565837,37.6746591 C847.698701,37.6746591 846.926295,37.4003716 846.248543,36.8521759 C845.384746,36.1514717 844.952867,35.2360418 844.952867,34.1066448 C844.952867,32.9802828 845.384746,32.0667497 846.248543,31.3656662 C846.926295,30.8174704 847.693731,30.5431829 848.55089,30.5431829 C849.042559,30.5431829 849.577438,30.6581333 850.155529,30.8872753 L850.155529,33.0053215 C849.9861,32.7993213 849.816634,32.6464335 849.647205,32.5466581 C849.331604,32.3573503 848.992709,32.2625068 848.630596,32.2625068 C848.172122,32.2625068 847.773476,32.400599 847.434581,32.676404 C847.00604,33.0250489 846.791731,33.5019223 846.791731,34.1066448 C846.791731,34.7144022 847.00604,35.1927931 847.434581,35.5418174 C847.773476,35.8176224 848.172122,35.9553353 848.630596,35.9553353 C848.992709,35.9553353 849.331604,35.8604917 849.647205,35.671184 C849.819972,35.5683736 849.989401,35.4154858 850.155529,35.2128999 L850.155529,37.3309461 C849.567461,37.5600881 849.037589,37.6746591 848.565837,37.6746591 L848.565837,37.6746591 Z M854.585595,37.6746591 C853.718725,37.6746591 852.946319,37.4003716 852.268377,36.8521759 C851.404542,36.1514717 850.972814,35.2360418 850.972814,34.1066448 C850.972814,32.9802828 851.404542,32.0667497 852.268377,31.3656662 C852.946319,30.8174704 853.713793,30.5431829 854.570799,30.5431829 C855.062468,30.5431829 855.597386,30.6581333 856.175552,30.8872753 L856.175552,33.0053215 C856.005972,32.7993213 855.836771,32.6464335 855.667191,32.5466581 C855.351551,32.3573503 855.01277,32.2625068 854.650468,32.2625068 C854.192184,32.2625068 853.793462,32.400599 853.45468,32.676404 C853.025988,33.0250489 852.811641,33.5019223 852.811641,34.1066448 C852.811641,34.7144022 853.025988,35.1927931 853.45468,35.5418174 C853.793462,35.8176224 854.192184,35.9553353 854.650468,35.9553353 C855.01277,35.9553353 855.351551,35.8604917 855.667191,35.671184 C855.839806,35.5683736 856.009386,35.4154858 856.175552,35.2128999 L856.175552,37.3309461 C855.587522,37.5600881 855.057536,37.6746591 854.585595,37.6746591 L854.585595,37.6746591 Z M830.486039,37.5301176 L830.486039,30.7279381 L832.255174,30.7279381 L832.255174,33.5584491 L834.806655,33.5584491 L834.806655,30.7279381 L836.575753,30.7279381 L836.575753,37.5301176 L834.806655,37.5301176 L834.806655,34.90371 L832.255174,34.90371 L832.255174,37.5301176 L830.486039,37.5301176 Z M839.974453,37.5301176 L837.358175,30.7279381 L839.226934,30.7279381 L839.695385,31.9138619 L842.137227,31.9138619 L842.575784,30.7279381 L844.464498,30.7279381 L841.90304,37.5301176 L839.974453,37.5301176 Z M857.296603,37.5301176 L857.296603,30.7279381 L859.066004,30.7279381 L859.066004,32.9802828 L860.172259,32.9802828 C861.042544,32.9802828 861.665476,33.2409128 862.041057,33.7625524 C862.33014,34.164689 862.474302,34.6730505 862.474302,35.2876367 C862.474302,35.9120866 862.295238,36.4253799 861.93635,36.8275165 C861.520935,37.2960437 860.913177,37.5301176 860.112318,37.5301176 L857.296603,37.5301176 Z M859.066004,36.0998768 L859.658966,36.0998768 C860.01444,36.0998768 860.265206,36.0236226 860.411265,35.8707348 C860.560739,35.7212614 860.635475,35.5201931 860.635475,35.2679092 C860.635475,35.0118316 860.570982,34.8092458 860.441236,34.6597724 C860.298591,34.4936065 860.036064,34.4105235 859.654034,34.4105235 L859.066004,34.4105235 L859.066004,36.0998768 Z M840.926265,35.4272464 L841.658836,33.2595022 L840.183754,33.2595022 L840.926265,35.4272464 Z M836.366149,21.0679328 C836.626438,21.0679328 836.918783,21.0045774 837.243224,20.8782457 L837.243224,19.7097732 C837.151567,19.8216886 837.058128,19.9059097 836.962829,19.9624364 C836.788658,20.0671437 836.601664,20.1194973 836.401886,20.1194973 C836.148919,20.1194973 835.928958,20.0432431 835.742003,19.8911141 C835.505501,19.6987714 835.387212,19.4347269 835.387212,19.0993601 C835.387212,18.7655108 835.505501,18.5026045 835.742003,18.3098824 C835.928958,18.1577533 836.148919,18.0818785 836.401886,18.0818785 C836.601664,18.0818785 836.788658,18.1342321 836.962829,18.23856 C837.056307,18.2935693 837.149746,18.3777904 837.243224,18.4916026 L837.243224,17.3231301 C836.924284,17.1964191 836.629131,17.1330636 836.357841,17.1330636 C835.884913,17.1330636 835.461531,17.2844339 835.087582,17.5867952 C834.611012,17.9737569 834.372689,18.4779452 834.372689,19.0993601 C834.372689,19.7222926 834.611012,20.227619 835.087582,20.6142013 C835.461531,20.9165625 835.88772,21.0679328 836.366149,21.0679328 L836.366149,21.0679328 Z M837.861908,20.9882643 L839.998315,20.9882643 L839.998315,20.1714716 L838.838037,20.1714716 L838.838037,19.5363992 L839.935112,19.5363992 L839.935112,18.7196065 L838.838037,18.7196065 L838.838037,18.0515286 L839.998315,18.0515286 L839.998315,17.2351153 L837.861908,17.2351153 L837.861908,20.9882643 Z M840.6225,20.9882643 L842.140262,20.9882643 C842.583864,20.9882643 842.911947,20.8551039 843.124587,20.589542 C843.296898,20.3748162 843.383092,20.1229117 843.383092,19.8334492 C843.383092,19.5014968 843.284151,19.2366936 843.086156,19.0386602 C842.959673,18.9123286 842.78554,18.8243138 842.563758,18.7746158 L843.743232,17.2351153 L842.527907,17.2351153 L841.59863,18.6759785 L841.59863,17.2351153 L840.6225,17.2351153 L840.6225,20.9882643 Z M843.798279,20.9882643 L846.377379,20.9882643 L846.377379,20.1714716 L845.569046,20.1714716 L845.569046,17.2351153 L844.592916,17.2351153 L844.592916,20.1714716 L843.798279,20.1714716 L843.798279,20.9882643 Z M846.803568,20.9882643 L847.779698,20.9882643 L847.779698,17.2351153 L846.803568,17.2351153 L846.803568,20.9882643 Z M848.574335,20.9882643 L850.724476,20.9882643 L850.724476,20.1714716 L849.550351,20.1714716 L849.550351,19.5363992 L850.620034,19.5363992 L850.620034,18.7196065 L849.550351,18.7196065 L849.550351,17.2351153 L848.574335,17.2351153 L848.574335,20.9882643 Z M851.313113,20.9882643 L852.288864,20.9882643 L852.288864,17.2351153 L851.313113,17.2351153 L851.313113,20.9882643 Z M853.083653,20.9882643 L855.219909,20.9882643 L855.219909,20.1714716 L854.059782,20.1714716 L854.059782,19.5363992 L855.156933,19.5363992 L855.156933,18.7196065 L854.059782,18.7196065 L854.059782,18.0515286 L855.219909,18.0515286 L855.219909,17.2351153 L853.083653,17.2351153 L853.083653,20.9882643 Z M855.844359,20.9882643 L857.284842,20.9882643 C857.636902,20.9882643 857.963164,20.8900063 858.264007,20.6938699 C858.558781,20.503424 858.785267,20.2484846 858.943087,19.9294309 C859.071316,19.6657658 859.13543,19.3933751 859.13543,19.1130176 C859.13543,18.7226415 859.017065,18.3603392 858.780715,18.0268692 C858.546262,17.6949168 858.245418,17.4650161 857.878942,17.3367876 C857.684703,17.2688796 857.48667,17.2351153 857.284842,17.2351153 L855.844359,17.2351153 L855.844359,20.9882643 Z M841.59863,20.2458289 L841.59863,19.3080159 L841.780084,19.3080159 C841.985402,19.3080159 842.132978,19.3512646 842.222776,19.4373825 C842.319934,19.531088 842.368456,19.6445208 842.368456,19.7784399 C842.368456,19.912359 842.319934,20.0250332 842.222776,20.1164623 C842.131119,20.2025803 841.983581,20.2458289 841.780084,20.2458289 L841.59863,20.2458289 Z M856.820488,20.1714716 L856.820488,18.0515286 L857.043181,18.0515286 C857.42597,18.0515286 857.713156,18.1789983 857.903602,18.4339378 C858.048523,18.6281774 858.120983,18.8546638 858.120983,19.1130176 C858.120983,19.3713714 858.048523,19.5970991 857.903602,19.7894418 C857.711259,20.0443812 857.424452,20.1714716 857.043181,20.1714716 L856.820488,20.1714716" id="HACCP" transform="translate(846.4802, 33.0134) scale(-1, 1) rotate(-180) translate(-846.4802, -33.0134)"></path>
            </g>
        </g>
    </g>
</svg>