<svg xmlns="http://www.w3.org/2000/svg" width="68.459" height="68.601" viewBox="0 0 68.459 68.601">
  <g id="Group_5" data-name="Group 5" transform="translate(1.5 2.121)">
    <path id="path2582" d="M0,8.151-6.234,10.3a11.108,11.108,0,0,1-8.146-.355l-2.713-1.21a6.726,6.726,0,0,0-2.751-.587H-33.32a6.208,6.208,0,0,1-6.209-6.206h0A1.946,1.946,0,0,1-37.582,0H-22.6" transform="translate(6.228 54.037) rotate(-180)" fill="none" stroke="#96c72c" stroke-linecap="round" stroke-linejoin="round" stroke-miterlimit="10" stroke-width="3"/>
    <path id="path2584" d="M-43.135,15.361l-6.643,3.256a8.011,8.011,0,0,1-9.162-1.508.981.981,0,0,1,.238-1.56l19.892-10.5c.836-.467,10.749-3.9,14.011-4.832a5.117,5.117,0,0,1,2.568-.1,6.819,6.819,0,0,1,.765.227L-8.433,5.011A3.989,3.989,0,0,0-5.007,4.8L0,2.017" transform="translate(6.228 64.703) rotate(-180)" fill="none" stroke="#96c72c" stroke-linecap="round" stroke-linejoin="round" stroke-miterlimit="10" stroke-width="3"/>
    <path id="path2586" d="M0,0H-2.715a3.39,3.39,0,0,0-3.39,3.39V18.428a3.392,3.392,0,0,0,3.39,3.393H0" transform="translate(0 64.98) rotate(-180)" fill="none" stroke="#96c72c" stroke-linecap="round" stroke-linejoin="round" stroke-miterlimit="10" stroke-width="3"/>
    <path id="path2588" d="M-.823,0C.548,2.685.31,6.646-2.326,10.582c-3.3,4.922-14.6,10.511-14.827,10.623" transform="translate(35.149 21.208) rotate(-180)" fill="none" stroke="#96c72c" stroke-linecap="round" stroke-linejoin="round" stroke-miterlimit="10" stroke-width="3"/>
    <path id="path2590" d="M-13.281,24.423l0,0a27.133,27.133,0,0,0,2.27-11.049c-.049-1.011-.074-2.15-.087-3.21A10.169,10.169,0,0,1-5.34.81,6.779,6.779,0,0,1,0,.362" transform="translate(39.024 24.423) rotate(-180)" fill="none" stroke="#96c72c" stroke-linecap="round" stroke-linejoin="round" stroke-miterlimit="10" stroke-width="3"/>
    <path id="path2592" d="M-.2,0c.145,3.51.254,7.632.161,8.788A30.905,30.905,0,0,1-6.131,24.9l-.044.06" transform="translate(38.064 38.284) rotate(-180)" fill="none" stroke="#96c72c" stroke-linecap="round" stroke-linejoin="round" stroke-miterlimit="10" stroke-width="3"/>
    <path id="path2594" d="M-12.273.263A5.184,5.184,0,0,1-11.3.047,5.923,5.923,0,0,1-5.542,2.838c.328.524.669,1.09.964,1.6A15.819,15.819,0,0,0,0,9.162s-7.422.822-10.615-.576a6.97,6.97,0,0,1-3.666-3.322" transform="translate(20.725 31.562) rotate(-180)" fill="none" stroke="#96c72c" stroke-linecap="round" stroke-linejoin="round" stroke-miterlimit="10" stroke-width="3"/>
    <path id="path2596" d="M-9.3,0A17.086,17.086,0,0,0-7.649,2.672,16.437,16.437,0,0,0-6.22,4.324,16.943,16.943,0,0,0-.041,8.353L0,8.367" transform="translate(28.821 34.356) rotate(-180)" fill="none" stroke="#96c72c" stroke-linecap="round" stroke-linejoin="round" stroke-miterlimit="10" stroke-width="3"/>
    <path id="path2598" d="M0,2.991C-3.578,6.064-9.667,8.086-16.578,8.086c-8.962,0-16.543-3.4-19.056-8.086" transform="translate(19.324 46.602) rotate(-180)" fill="none" stroke="#96c72c" stroke-linecap="round" stroke-linejoin="round" stroke-miterlimit="10" stroke-width="3"/>
  </g>
</svg>
