<svg xmlns="http://www.w3.org/2000/svg" width="30" height="30" viewBox="0 0 30 30">
  <path id="instagram" d="M26.434,30H3.566A3.566,3.566,0,0,1,0,26.442V3.558A3.566,3.566,0,0,1,3.566,0H26.434A3.566,3.566,0,0,1,30,3.558V26.442A3.566,3.566,0,0,1,26.434,30ZM2.813,12.188V26.25a.938.938,0,0,0,.938.937h22.5a.938.938,0,0,0,.937-.937V12.188H23.438a4.839,4.839,0,0,1,.724,2.847,9.126,9.126,0,0,1-18.252,0,5.69,5.69,0,0,1,.653-2.847ZM15.035,9.279a5.756,5.756,0,1,0,5.77,5.755A5.768,5.768,0,0,0,15.035,9.279ZM22.5,3.75a.938.938,0,0,0-.938.937V7.5a.939.939,0,0,0,.938.938h2.813A.939.939,0,0,0,26.25,7.5V4.687a.938.938,0,0,0-.938-.937Z" fill="#373938"/>
</svg>
