<?xml version="1.0" encoding="UTF-8"?>
<svg width="47px" height="51px" viewBox="0 0 47 51" version="1.1" xmlns="http://www.w3.org/2000/svg" xmlns:xlink="http://www.w3.org/1999/xlink">
    <title>ISO</title>
    <g id="Page-1" stroke="none" stroke-width="1" fill="none" fill-rule="evenodd">
        <g id="Home" transform="translate(-1269, -1846)" fill="#373938" fill-rule="nonzero">
            <g id="Certifications" transform="translate(370, 1839)">
                <path d="M940.694585,7.55998959 C943.362639,7.55998959 945.533659,9.73064609 945.533659,12.3990629 L945.533659,52.7212799 C945.533659,55.3893331 943.362639,57.5599896 940.694585,57.5599896 L904.524358,57.5599896 C901.856087,57.5599896 899.685321,55.3893331 899.685321,52.7212799 L899.685321,12.3990629 C899.685321,9.73064609 901.856087,7.55998959 904.524358,7.55998959 Z M940.694585,8.65804363 L904.524358,8.65804363 C902.461652,8.65804363 900.783484,10.3360302 900.783484,12.3990629 L900.783484,52.7212799 C900.783484,54.783949 902.461652,56.4619355 904.524358,56.4619355 L940.694585,56.4619355 C942.757254,56.4619355 944.435241,54.783949 944.435241,52.7212799 L944.435241,12.3990629 C944.435241,10.3360302 942.757254,8.65804363 940.694585,8.65804363 Z M914.507887,47.1695623 C915.046479,47.1739254 915.461303,47.3368156 915.752579,47.6575055 C916.043708,47.9785591 916.201363,48.397783 916.225324,48.9148138 C916.23325,49.1646029 916.23725,49.3853045 916.23725,49.5769185 C916.23725,49.7641695 916.23325,49.9779628 916.225324,50.218662 C916.197327,50.7447826 916.041781,51.1694605 915.758542,51.4926956 C915.475229,51.8159307 915.058441,51.979548 914.507887,51.9842748 C913.957406,51.979548 913.540509,51.8159307 913.257269,51.4926956 C912.973957,51.1694605 912.820447,50.7447826 912.796523,50.218662 C912.788487,49.9779628 912.784524,49.7641695 912.784524,49.5769185 C912.784524,49.3853045 912.788487,49.1646029 912.796523,48.9148138 C912.812412,48.5803072 912.88524,48.2828873 913.014934,48.0221903 C913.144518,47.7611298 913.335078,47.5538812 913.586394,47.4000809 C913.837711,47.2462806 914.144838,47.1695623 914.507887,47.1695623 Z M918.330824,47.1695623 C918.86938,47.1739254 919.28424,47.3368156 919.575479,47.6575055 C919.866609,47.9785591 920.024263,48.397783 920.048224,48.9148138 C920.056151,49.1646029 920.060186,49.3853045 920.060186,49.5769185 C920.060186,49.7641695 920.056151,49.9779628 920.048224,50.218662 C920.020264,50.7447826 919.864682,51.1694605 919.581479,51.4926956 C919.298166,51.8159307 918.881342,51.979548 918.330824,51.9842748 C917.780306,51.979548 917.363409,51.8159307 917.080206,51.4926956 C916.796893,51.1694605 916.643348,50.7447826 916.619423,50.218662 C916.611388,49.9779628 916.607461,49.7641695 916.607461,49.5769185 C916.607461,49.3853045 916.611388,49.1646029 916.619423,48.9148138 C916.635312,48.5803072 916.70814,48.2828873 916.837834,48.0221903 C916.967419,47.7611298 917.157979,47.5538812 917.409295,47.4000809 C917.660611,47.2462806 917.967775,47.1695623 918.330824,47.1695623 Z M922.153688,47.1695623 C922.692317,47.1739254 923.107177,47.3368156 923.398416,47.6575055 C923.689655,47.9785591 923.847091,48.397783 923.871088,48.9148138 C923.879088,49.1646029 923.883087,49.3853045 923.883087,49.5769185 C923.883087,49.7641695 923.879088,49.9779628 923.871088,50.218662 C923.843092,50.7447826 923.687473,51.1694605 923.404234,51.4926956 C923.120994,51.8159307 922.704315,51.979548 922.153688,51.9842748 C921.603171,51.979548 921.18631,51.8159307 920.90307,51.4926956 C920.619758,51.1694605 920.466248,50.7447826 920.442324,50.218662 C920.434288,49.9779628 920.430325,49.7641695 920.430325,49.5769185 C920.430325,49.3853045 920.434288,49.1646029 920.442324,48.9148138 C920.458213,48.5803072 920.531041,48.2828873 920.660735,48.0221903 C920.79032,47.7611298 920.980916,47.5538812 921.232232,47.4000809 C921.483512,47.2462806 921.790712,47.1695623 922.153688,47.1695623 Z M931.476749,47.162654 C932.015595,47.1673807 932.430093,47.3299073 932.721695,47.6509608 C933.01257,47.9720144 933.17037,48.3908747 933.194367,48.9079055 C933.202003,49.1576946 933.206366,49.3783962 933.206366,49.5700102 C933.206366,49.7572612 933.202003,49.9714181 933.194367,50.2121173 C933.16637,50.7382379 933.010752,51.1629158 932.727512,51.4861509 C932.444273,51.809386 932.02723,51.9730033 931.476749,51.9773665 C930.926268,51.9730033 930.509589,51.809386 930.226349,51.4861509 C929.943109,51.1629158 929.789309,50.7382379 929.765312,50.2121173 C929.757313,49.9714181 929.753677,49.7572612 929.753677,49.5700102 C929.753677,49.3783962 929.757313,49.1576946 929.765312,48.9079055 C929.78131,48.5737625 929.854029,48.2763426 929.983832,48.0152821 C930.113271,47.7545851 930.304158,47.5473365 930.555402,47.3935362 C930.806645,47.2397359 931.113882,47.162654 931.476749,47.162654 Z M938.267595,47.162654 C938.790443,47.162654 939.186397,47.2855488 939.455457,47.5306112 C939.72488,47.7756736 939.85941,48.0967271 939.85941,48.4934082 C939.85941,48.8991792 939.71979,49.2089613 939.440549,49.4231182 C939.620165,49.5212886 939.762694,49.6659991 939.8685,49.8576131 C939.974306,50.0495908 940.027027,50.2677472 940.027027,50.5131732 C940.027027,50.7895047 939.961216,51.0378394 939.829595,51.258541 C939.697974,51.4792426 939.499452,51.654495 939.234028,51.7835708 C938.968968,51.9126467 938.646824,51.9773665 938.267595,51.9773665 C937.884731,51.9773665 937.561495,51.9126467 937.298253,51.7835708 C937.035011,51.654495 936.83867,51.4781518 936.708867,51.2552687 C936.579428,51.0323855 936.514345,50.7825964 936.514345,50.5062649 C936.514345,50.2699288 936.567429,50.0572263 936.673235,49.8677938 C936.778677,49.6783613 936.919388,49.5300149 937.095004,49.4231182 C936.955384,49.3205847 936.848487,49.1911452 936.774678,49.0351634 C936.700868,48.8791815 936.664145,48.7006569 936.664145,48.5003165 C936.664145,48.2461643 936.723048,48.0178272 936.840488,47.8145781 C936.958293,47.6120563 937.136818,47.4524385 937.376062,47.3368156 C937.615671,47.2208291 937.912727,47.162654 938.267595,47.162654 Z M906.891246,47.149201 C907.226334,47.149201 907.513537,47.2095576 907.752891,47.3299073 C907.992282,47.4502569 908.173751,47.6196917 908.297446,47.8382118 C908.421068,48.0567318 908.482952,48.310884 908.482952,48.6006685 C908.482952,48.9126322 908.396162,49.1965991 908.222655,49.452933 C908.049111,49.7096304 907.784779,49.9870526 907.429765,50.2855633 L906.879248,50.9076728 L908.417141,50.9076728 C908.460991,50.9076728 908.497896,50.9233073 908.527819,50.9542128 C908.557743,50.9854819 908.572723,51.0258408 908.572723,51.0745624 L908.572723,51.7501202 C908.572723,51.7992054 908.557743,51.8395643 908.527819,51.8704698 C908.497896,51.9017389 908.460991,51.9173735 908.417141,51.9173735 L905.347389,51.9173735 C905.303431,51.9173735 905.266599,51.9017389 905.236675,51.8704698 C905.206788,51.8395643 905.191808,51.7992054 905.191808,51.7501202 L905.191808,51.2752664 C905.191808,51.1414637 905.24162,51.0323855 905.34139,50.9476681 L905.963718,50.2655657 C906.326694,49.953602 906.601934,49.7103575 906.789513,49.5365596 C906.976982,49.3627616 907.118602,49.2045982 907.214372,49.0617057 C907.310106,48.9191769 907.357992,48.7831927 907.357992,48.6541168 C907.357992,48.3017942 907.20241,48.1258147 906.891246,48.1258147 C906.727629,48.1258147 906.601934,48.1803538 906.514235,48.289432 C906.426464,48.3988738 906.36858,48.5359487 906.340692,48.7006569 C906.316768,48.803554 906.248885,48.8544571 906.137261,48.8544571 L905.389275,48.8544571 C905.353352,48.8544571 905.323429,48.8413678 905.299504,48.8144618 C905.27558,48.7875558 905.263617,48.7544688 905.263617,48.7141098 C905.271544,48.4290521 905.342335,48.1669008 905.476029,47.9283831 C905.60965,47.6898654 905.799191,47.5004329 906.044508,47.3600856 C906.289862,47.2197383 906.572011,47.149201 906.891246,47.149201 Z M910.780721,47.149201 C911.115845,47.149201 911.403085,47.2095576 911.642402,47.3299073 C911.881793,47.4502569 912.063262,47.6196917 912.186957,47.8382118 C912.310579,48.0567318 912.372463,48.310884 912.372463,48.6006685 C912.372463,48.9126322 912.285673,49.1965991 912.112166,49.452933 C911.938622,49.7096304 911.674326,49.9870526 911.319276,50.2855633 L910.768759,50.9076728 L912.306616,50.9076728 C912.350502,50.9076728 912.387407,50.9233073 912.41733,50.9542128 C912.447254,50.9854819 912.462198,51.0258408 912.462198,51.0745624 L912.462198,51.7501202 C912.462198,51.7992054 912.447254,51.8395643 912.41733,51.8704698 C912.387407,51.9017389 912.350502,51.9173735 912.306616,51.9173735 L909.2369,51.9173735 C909.192942,51.9173735 909.15611,51.9017389 909.126186,51.8704698 C909.096262,51.8395643 909.081319,51.7992054 909.081319,51.7501202 L909.081319,51.2752664 C909.081319,51.1414637 909.131131,51.0323855 909.230901,50.9476681 L909.853229,50.2655657 C910.216168,49.953602 910.491445,49.7103575 910.679024,49.5365596 C910.866456,49.3627616 911.008113,49.2045982 911.103883,49.0617057 C911.199618,48.9191769 911.247503,48.7831927 911.247503,48.6541168 C911.247503,48.3017942 911.091885,48.1258147 910.780721,48.1258147 C910.617103,48.1258147 910.491445,48.1803538 910.403747,48.289432 C910.315975,48.3988738 910.258091,48.5359487 910.230203,48.7006569 C910.206279,48.803554 910.138396,48.8544571 910.026772,48.8544571 L909.27875,48.8544571 C909.242863,48.8544571 909.21294,48.8413678 909.189015,48.8144618 C909.165091,48.7875558 909.153128,48.7544688 909.153128,48.7141098 C909.161055,48.4290521 909.231847,48.1669008 909.36554,47.9283831 C909.499161,47.6898654 909.688666,47.5004329 909.934019,47.3600856 C910.179373,47.2197383 910.461522,47.149201 910.780721,47.149201 Z M935.706802,47.2295553 C935.750433,47.2295553 935.786429,47.2451899 935.814426,47.2764589 C935.842059,47.307728 935.856239,47.3477234 935.856239,47.3968086 L935.856239,51.7435755 C935.856239,51.787934 935.842059,51.8272021 935.814426,51.8602892 C935.786429,51.8937398 935.750433,51.9104652 935.706802,51.9104652 L934.928711,51.9104652 C934.888716,51.9104652 934.853811,51.8937398 934.823996,51.8602892 C934.794181,51.8272021 934.779274,51.787934 934.779274,51.7435755 L934.779274,48.5603095 L933.959369,49.2624097 C933.931372,49.2893156 933.901558,49.3027686 933.869561,49.3027686 C933.825567,49.3027686 933.785935,49.2758626 933.749939,49.2224143 L933.396889,48.7075651 C933.376891,48.6719329 933.367074,48.6384823 933.367074,48.6072132 C933.367074,48.544675 933.390708,48.4977714 933.438702,48.4668659 L934.814906,47.2764589 C934.858901,47.2451899 934.906895,47.2295553 934.958526,47.2295553 L935.706802,47.2295553 Z M927.749546,47.1426563 C928.08478,47.1426563 928.372019,47.2030129 928.611264,47.3233626 C928.850873,47.4437122 929.032306,47.613147 929.155928,47.8316671 C929.27955,48.0498235 929.341361,48.3039757 929.341361,48.5937602 C929.341361,48.9060875 929.254462,49.1900545 929.081028,49.4463883 C928.907593,49.7027221 928.64326,49.9805079 928.288393,50.2790186 L927.737548,50.9007645 L929.275551,50.9007645 C929.319545,50.9007645 929.356268,50.916399 929.386447,50.9476681 C929.416261,50.9789372 929.431169,51.0189325 929.431169,51.0680177 L929.431169,51.7435755 C929.431169,51.7926607 929.416261,51.832656 929.386447,51.8639251 C929.356268,51.8948306 929.319545,51.9104652 929.275551,51.9104652 L926.205726,51.9104652 C926.162095,51.9104652 926.125008,51.8948306 926.095193,51.8639251 C926.065015,51.832656 926.050108,51.7926607 926.050108,51.7435755 L926.050108,51.2687217 C926.050108,51.134919 926.09992,51.0258408 926.199908,50.9411234 L926.822381,50.259021 C927.185248,49.9470573 927.460489,49.7038129 927.648104,49.5300149 C927.835354,49.3562169 927.977156,49.1980535 928.072781,49.0551611 C928.168407,48.9126322 928.216401,48.776648 928.216401,48.6472085 C928.216401,48.2952495 928.060783,48.1189064 927.749546,48.1189064 C927.585929,48.1189064 927.460489,48.1738091 927.372863,48.2828873 C927.284873,48.3923291 927.227062,48.5294041 927.199065,48.6941122 C927.175431,48.7966457 927.107439,48.8479124 926.995816,48.8479124 L926.247903,48.8479124 C926.211907,48.8479124 926.181729,48.8344595 926.158095,48.8079171 C926.134098,48.7810111 926.122099,48.7475605 926.122099,48.7075651 C926.130098,48.4221438 926.200636,48.1603561 926.334438,47.9218384 C926.468241,47.6833207 926.657673,47.4938882 926.903099,47.3531773 C927.148162,47.21283 927.430311,47.1426563 927.749546,47.1426563 Z M925.01641,50.1015847 C925.305831,50.1015847 925.540712,50.3361029 925.540712,50.6255238 C925.540712,50.9149446 925.305831,51.1498264 925.01641,51.1498264 C924.726989,51.1498264 924.492107,50.9149446 924.492107,50.6255238 C924.492107,50.3361029 924.726989,50.1015847 925.01641,50.1015847 Z M938.267595,49.8976085 C938.072345,49.8976085 937.909819,49.9525112 937.780015,50.0615894 C937.650212,50.1710312 937.585493,50.319014 937.585493,50.5062649 C937.585493,50.6935159 937.650212,50.842953 937.780015,50.9542128 C937.909819,51.0658362 938.072345,51.1214661 938.267595,51.1214661 C938.463209,51.1214661 938.624644,51.0658362 938.75263,50.9542128 C938.880251,50.842953 938.94388,50.6935159 938.94388,50.5062649 C938.94388,50.319014 938.880251,50.1710312 938.75263,50.0615894 C938.624644,49.9525112 938.463209,49.8976085 938.267595,49.8976085 Z M922.153688,48.1258147 C921.958184,48.1301778 921.811619,48.2058053 921.713921,48.3530609 C921.616115,48.5003165 921.563248,48.7006569 921.555358,48.9548091 C921.5521,49.0510888 921.550239,49.2001915 921.549624,49.402117 L921.549395,49.5634655 C921.549395,49.8488869 921.551286,50.0561355 921.555358,50.1852114 C921.575247,50.7382379 921.774642,51.0145694 922.153688,51.0145694 C922.34912,51.0145694 922.495758,50.9422142 922.593564,50.7971402 C922.691226,50.6524297 922.744311,50.4484535 922.751946,50.1852114 C922.758345,50.0819507 922.762185,49.9286594 922.763465,49.7253376 L922.763945,49.5634655 C922.763945,49.2780442 922.759945,49.0751587 922.751946,48.9548091 C922.744311,48.7006569 922.692317,48.5003165 922.59651,48.3530609 C922.500812,48.2058053 922.353192,48.1301778 922.153688,48.1258147 Z M914.507887,48.1258147 C914.312419,48.1301778 914.165781,48.2058053 914.068084,48.3530609 C913.970277,48.5003165 913.917483,48.7006569 913.90952,48.9548091 C913.906292,49.0510888 913.904413,49.2001915 913.90379,49.402117 L913.903557,49.5634655 C913.903557,49.8488869 913.905484,50.0561355 913.90952,50.1852114 C913.929445,50.7382379 914.128877,51.0145694 914.507887,51.0145694 C914.703319,51.0145694 914.84992,50.9422142 914.947727,50.7971402 C915.045425,50.6524297 915.098255,50.4484535 915.10629,50.1852114 C915.11266,50.0819507 915.116494,49.9286594 915.117773,49.7253376 L915.118252,49.5634655 C915.118252,49.2780442 915.114253,49.0751587 915.10629,48.9548091 C915.098255,48.7006569 915.046479,48.5003165 914.950708,48.3530609 C914.85501,48.2058053 914.707318,48.1301778 914.507887,48.1258147 Z M918.330824,48.1258147 C918.13532,48.1301778 917.988718,48.2058053 917.891021,48.3530609 C917.793214,48.5003165 917.740384,48.7006569 917.732421,48.9548091 C917.729221,49.0510888 917.727325,49.2001915 917.726694,49.402117 L917.726458,49.5634655 C917.726458,49.8488869 917.728421,50.0561355 917.732421,50.1852114 C917.752382,50.7382379 917.951777,51.0145694 918.330824,51.0145694 C918.52622,51.0145694 918.672821,50.9422142 918.770627,50.7971402 C918.868362,50.6524297 918.921192,50.4484535 918.929227,50.1852114 C918.935568,50.0819507 918.939419,49.9286594 918.940706,49.7253376 L918.941189,49.5634655 C918.941189,49.2780442 918.937154,49.0751587 918.929227,48.9548091 C918.921192,48.7006569 918.86938,48.5003165 918.773645,48.3530609 C918.677911,48.2058053 918.530255,48.1301778 918.330824,48.1258147 Z M931.476749,48.1189064 C931.281499,48.1236331 931.134607,48.1992607 931.037164,48.3465162 C930.939357,48.4934082 930.886272,48.6941122 930.878637,48.9482644 C930.875146,49.0445441 930.873285,49.1936468 930.87268,49.3953862 L930.872456,49.5565573 C930.872456,49.8419786 930.874274,50.0495908 930.878637,50.1786667 C930.898271,50.7313296 931.097884,51.0080247 931.476749,51.0080247 C931.672363,51.0080247 931.818891,50.9353059 931.916698,50.7905955 C932.014505,50.645885 932.067226,50.4415452 932.075225,50.1786667 C932.081624,50.075406 932.085464,49.921882 932.086743,49.7184671 L932.087223,49.5565573 C932.087223,49.2714995 932.083224,49.068614 932.075225,48.9482644 C932.067226,48.6941122 932.015595,48.4934082 931.919606,48.3465162 C931.823981,48.1992607 931.676362,48.1236331 931.476749,48.1189064 Z M938.267595,48.0185544 C938.092343,48.0185544 937.948723,48.0680032 937.836736,48.16581 C937.725113,48.2639804 937.669483,48.3930563 937.669483,48.5537649 C937.669483,48.7141098 937.725113,48.8435493 937.836736,48.9413561 C937.948723,49.0395265 938.092343,49.0886117 938.267595,49.0886117 C938.443211,49.0842486 938.586831,49.0329818 938.698454,48.9348114 C938.810077,48.8370046 938.866071,48.7097467 938.866071,48.5537649 C938.866071,48.3930563 938.810077,48.2639804 938.698454,48.16581 C938.586831,48.0680032 938.443211,48.0185544 938.267595,48.0185544 Z M925.01641,47.9836494 C925.305831,47.9836494 925.540712,48.2185311 925.540712,48.507952 C925.540712,48.7973729 925.305831,49.031891 925.01641,49.031891 C924.726989,49.031891 924.492107,48.7973729 924.492107,48.507952 C924.492107,48.2185311 924.726989,47.9836494 925.01641,47.9836494 Z M934.448403,34.95462 C934.602567,34.6935595 934.939255,34.6066605 935.200316,34.7608244 C935.461376,34.9149883 935.548275,35.2516764 935.394111,35.5127369 C934.104807,37.6964828 932.265748,39.5264517 930.076185,40.8041212 C927.818993,42.1214224 925.237111,42.8177051 922.609417,42.8177051 C919.981687,42.8177051 917.399769,42.1214224 915.142686,40.8041212 C912.952977,39.5264517 911.114064,37.6964828 909.824723,35.5127369 C909.670559,35.2516764 909.75724,34.9149883 910.01841,34.7608244 C910.27947,34.6070241 910.616195,34.6935595 910.770395,34.95462 C911.405448,36.0301312 912.178522,37.0005638 913.05871,37.8488287 C914.273551,37.3194358 915.521296,36.8958487 916.788858,36.5777039 C916.660109,36.1930214 916.538996,35.7927043 916.426391,35.3774799 C916.347055,35.0847867 916.51998,34.7830036 916.812673,34.7037401 C917.105512,34.6244766 917.406968,34.7971838 917.486304,35.089877 C917.603491,35.5221903 917.730312,35.9370512 917.865678,36.3333687 C920.995969,35.6999878 924.222684,35.6999878 927.353229,36.3333687 C927.488486,35.9370512 927.61538,35.5221903 927.732457,35.089877 C927.811721,34.7971838 928.113504,34.6244766 928.406197,34.7037401 C928.69889,34.7830036 928.871598,35.0847867 928.792334,35.3774799 C928.67962,35.7927043 928.558543,36.1930214 928.429831,36.5777039 C929.69732,36.8958487 930.945174,37.3194358 932.159942,37.8484651 C933.040203,37.0005638 933.813204,36.0301312 934.448403,34.95462 Z M926.960184,37.3754292 C924.0867,36.8173124 921.131916,36.8173124 918.258578,37.3754292 C919.39361,40.103839 920.973389,41.719651 922.609417,41.719651 C924.24559,41.719651 925.825043,40.103839 926.960184,37.3754292 Z M917.169214,37.6146741 C916.08574,37.880825 915.017101,38.2276937 913.972204,38.6549167 C915.577072,39.9493116 917.460598,40.8764764 919.475818,41.3531482 C918.592685,40.4681603 917.807903,39.2032166 917.169214,37.6146741 Z M928.049511,37.6146741 C927.41104,39.2032166 926.626041,40.4681603 925.742871,41.3531482 C927.758273,40.8764764 929.64169,39.9493116 931.246594,38.6549167 C930.201625,38.2273301 929.133022,37.880825 928.049511,37.6146741 Z M918.554471,21.944134 C919.599731,21.944134 920.54213,22.0866628 921.355381,22.367721 C922.212009,22.6640502 922.883931,23.1105437 923.352603,23.6955665 C923.694018,24.1216988 923.920901,24.5932803 924.029252,25.1023119 C924.091063,25.390642 923.883814,25.6669735 923.589667,25.6851532 L921.592299,25.8065936 C921.316477,25.8236825 921.061924,25.6575201 920.966736,25.3982775 C920.858239,25.1023119 920.680551,24.8736113 920.429671,24.7049036 C920.052842,24.451115 919.445567,24.3227663 918.624863,24.3227663 C917.547642,24.3227663 917.040502,24.5074721 916.804783,24.6623631 C916.40443,24.9252416 916.358145,25.1732128 916.358145,25.3368301 C916.358145,25.5538957 916.441044,25.7116956 916.62695,25.8480433 C916.691088,25.8960378 917.079697,26.1345555 918.888905,26.4701528 C920.3359,26.7384852 921.313895,26.9711854 921.878811,27.1817063 C922.747219,27.5100318 923.403143,27.9401635 923.83182,28.4611938 C924.267406,28.9909503 924.488108,29.6046971 924.488108,30.2853452 C924.488108,30.957267 924.251771,31.5968289 923.786371,32.1865785 C923.321698,32.7752373 922.652321,33.2362745 921.797221,33.5573281 C920.972517,33.8671102 920.038371,34.0241828 919.02078,34.0241828 C917.763399,34.0241828 916.683089,33.8678374 915.809954,33.559146 C914.897115,33.2366381 914.169127,32.7417866 913.646206,32.0887717 C913.24298,31.5855575 912.985955,31.0267135 912.878768,30.421693 C912.828737,30.1391804 913.033804,29.8755747 913.31988,29.8566678 L915.295723,29.7265011 C915.578235,29.7079578 915.841986,29.8799378 915.929613,30.1489974 C916.004877,30.3802432 916.109773,30.5780384 916.243322,30.7405649 C916.445044,30.9859909 916.780568,31.1939667 917.240551,31.3579476 C917.735802,31.5346544 918.308136,31.6240985 918.941589,31.6240985 C919.502797,31.6240985 919.997976,31.5571972 920.413345,31.4248489 C920.781812,31.3074081 921.050762,31.1546986 921.212707,30.97072 C921.369598,30.7925589 921.445843,30.6060351 921.445843,30.4006045 C921.445843,30.1951739 921.380651,30.0304657 921.240631,29.882483 C921.089121,29.7225016 920.792319,29.5705193 920.38244,29.4425342 C920.160902,29.3719969 919.602422,29.2301952 918.171315,28.9484098 C916.917607,28.7018931 916.049344,28.4691929 915.517006,28.2375835 C914.79709,27.9285285 914.244172,27.5293022 913.877088,27.052994 C913.504877,26.5701411 913.316062,26.0243865 913.316062,25.4306374 C913.316062,24.7867123 913.540763,24.1776923 913.983912,23.6210298 C914.430187,23.0607313 915.081893,22.6324175 915.920923,22.348087 C916.712394,22.0801182 917.598437,21.944134 918.554471,21.944134 Z M931.741809,21.9401344 C932.939124,21.9401344 934.036815,22.2026493 935.005066,22.7200437 C935.980588,23.2418012 936.734319,23.9780791 937.245169,24.9088799 C937.74402,25.8182286 937.996718,26.857744 937.996718,27.9983386 C937.996718,29.1567492 937.730203,30.2118992 937.20481,31.1350645 C936.666327,32.0811362 935.890054,32.8086879 934.897442,33.2977219 C933.923737,33.7773025 932.859497,34.0205469 931.73381,34.0205469 C930.512134,34.0205469 929.400627,33.7493057 928.431285,33.2151861 C927.457944,32.6788848 926.710394,31.9367894 926.208998,31.0092609 C925.719237,30.1031846 925.470902,29.1316612 925.470902,28.1208698 C925.470902,26.223636 926.058834,24.7049036 927.218699,23.6072132 C928.387654,22.5011601 929.909295,21.9401344 931.741809,21.9401344 Z M910.607468,22.3397243 C910.838314,22.3397243 911.025456,22.5266117 911.025456,22.7574939 L911.025456,33.2108229 C911.025456,33.4417052 910.838314,33.6289561 910.607468,33.6289561 L908.738122,33.6289561 C908.507276,33.6289561 908.320134,33.4417052 908.320134,33.2108229 L908.320134,22.7574939 C908.320134,22.5266117 908.507276,22.3397243 908.738122,22.3397243 Z M931.749808,24.2885884 C930.80919,24.2885884 930.022009,24.5707374 929.34427,25.1506699 C928.68471,25.7153315 928.350204,26.7221234 928.350204,28.1426854 C928.350204,29.2760081 928.667985,30.1329993 929.322091,30.7616534 C929.964561,31.3790361 930.750652,31.6793648 931.725811,31.6793648 C932.720241,31.6793648 933.513239,31.3768545 934.149892,30.7543815 C934.792,30.1264546 935.11778,29.1971082 935.11778,27.9910667 C935.11778,27.216975 934.973433,26.5385084 934.688739,25.9745741 C934.414952,25.4320917 934.029179,25.02523 933.508512,24.7303552 C932.98421,24.4329353 932.409004,24.2885884 931.749808,24.2885884 Z M922.609417,13.1426127 C925.238929,13.1426127 927.822265,13.8396225 930.080548,15.1583781 C930.996441,15.6935886 931.850887,16.3255151 932.629706,17.0396138 C932.642068,17.0497944 932.654066,17.0610658 932.665701,17.0723372 C933.733577,18.0580407 934.65747,19.1982717 935.399202,20.4559435 C935.553002,20.717004 935.466103,21.0536921 935.205042,21.207856 C935.117416,21.2594864 935.021427,21.2838472 934.926529,21.2838472 C934.738551,21.2838472 934.555663,21.1871312 934.45313,21.0136968 C933.817204,19.9349132 933.042385,18.9619355 932.160306,18.111489 C930.945538,18.640882 929.697683,19.0641055 928.429831,19.3822503 C928.559634,19.7698415 928.681438,20.1727037 928.794516,20.5912005 C928.873779,20.8838937 928.700708,21.1856768 928.408015,21.2649403 C928.360021,21.2776661 928.311663,21.2838472 928.264395,21.2838472 C928.022605,21.2838472 927.800813,21.122775 927.734639,20.8780762 C927.616834,20.4432177 927.489213,20.0258117 927.353229,19.6265855 C925.787956,19.9436395 924.198687,20.1021665 922.609417,20.1021665 C921.019929,20.1021665 919.430696,19.9436395 917.865642,19.6269491 C917.72944,20.0258117 917.601927,20.4432177 917.484123,20.8780762 C917.404859,21.1707694 917.103331,21.3438402 916.810637,21.2649403 C916.517908,21.1856768 916.344837,20.8838937 916.424064,20.5912005 C916.537324,20.1727037 916.659164,19.7698415 916.788749,19.3822503 C915.521296,19.0644691 914.273551,18.640882 913.058601,18.111489 C912.17634,18.9619355 911.401667,19.9349132 910.765704,21.0136968 C910.611686,21.2747573 910.275071,21.3616563 910.013828,21.207856 C909.752586,21.0536921 909.665651,20.717004 909.819669,20.4559435 C910.561183,19.1982717 911.485184,18.0580407 912.553278,17.0723372 C912.564768,17.0607022 912.576694,17.0497944 912.589056,17.0396138 C913.367729,16.3255151 914.222139,15.6935886 915.138359,15.1583781 C917.396533,13.8396225 919.980014,13.1426127 922.609417,13.1426127 Z M922.609417,14.2406667 C920.973098,14.2406667 919.393464,15.8561151 918.258505,18.5845249 C921.13188,19.1430054 924.087063,19.1430054 926.960184,18.5848885 C925.825407,15.8561151 924.24559,14.2406667 922.609417,14.2406667 Z M919.475673,14.6071696 C917.460307,15.0834778 915.576854,16.0110062 913.972059,17.305401 C915.016992,17.732624 916.085631,18.0794928 917.169141,18.3456436 C917.807794,16.7571012 918.592539,15.4921575 919.475673,14.6071696 Z M925.743234,14.6071696 C926.626041,15.4921575 927.41104,16.7571012 928.049511,18.3456436 C929.133022,18.0794928 930.201988,17.732624 931.246594,17.305401 C929.642053,16.0110062 927.758636,15.0834778 925.743234,14.6071696 Z" id="ISO"></path>
            </g>
        </g>
    </g>
</svg>