<svg xmlns="http://www.w3.org/2000/svg" width="30.461" height="30" viewBox="0 0 30.461 30">
  <path id="LinkedIn" d="M28.233,30H2.224a2.233,2.233,0,0,1-1.555-.625A2.162,2.162,0,0,1,0,27.835V2.165A2.158,2.158,0,0,1,.67.626,2.228,2.228,0,0,1,2.224,0H28.205l.028,0a2.233,2.233,0,0,1,1.555.622,2.158,2.158,0,0,1,.674,1.541V27.835a2.165,2.165,0,0,1-.673,1.542A2.235,2.235,0,0,1,28.233,30ZM19.094,14.8c2.348,0,2.348,2.194,2.348,3.8v6.962h4.514l0-7.853c0-3.541-.656-6.818-5.418-6.818q-.088,0-.177,0a4.826,4.826,0,0,0-2.286.577A4.728,4.728,0,0,0,16.263,13.2H16.2V11.246H11.87V25.562h4.514V18.48C16.384,16.662,16.706,14.8,19.094,14.8ZM4.516,11.246V25.562H9.034V11.246ZM6.776,4.13a2.684,2.684,0,0,0-.512.049,2.62,2.62,0,0,0-1.34.707,2.567,2.567,0,0,0-.717,1.321A2.54,2.54,0,0,0,4.357,7.7a2.59,2.59,0,0,0,.965,1.157,2.651,2.651,0,0,0,2.458.238A2.6,2.6,0,0,0,9.2,7.7a2.546,2.546,0,0,0-.243-2.42,2.6,2.6,0,0,0-1.175-.95A2.641,2.641,0,0,0,6.776,4.13Z" transform="translate(0 0)" fill="#373938"/>
</svg>
