<?xml version="1.0" encoding="UTF-8"?>
<svg width="150px" height="48px" viewBox="0 0 150 48" version="1.1" xmlns="http://www.w3.org/2000/svg" xmlns:xlink="http://www.w3.org/1999/xlink">
    <title> Logo-Leto-Herbs</title>
    <g id="Page-1" stroke="none" stroke-width="1" fill="none" fill-rule="evenodd">
        <g id="Partners" transform="translate(-135, -19)" fill-rule="nonzero">
            <g id="header" transform="translate(0, 19)">
                <g id="-Logo-Leto-Herbs" transform="translate(135, 0)">
                    <path d="M72.1103048,29.3472483 C71.8355606,29.0873938 71.520836,28.9628355 71.1482347,28.9660568 L57.8638549,29.0822039 L57.6564366,5.36923053 C57.6533048,5.01470455 57.5222143,4.71458338 57.2554518,4.45204446 C56.988403,4.18950554 56.6866873,4.06351549 56.3325354,4.06667661 C55.9779646,4.06960024 55.678273,4.20113814 55.4161188,4.46815114 C55.1540359,4.73516414 55.0281326,5.03761184 55.0312209,5.39231677 L55.2616235,31.7337217 L71.1713031,31.5944884 C71.5438506,31.591446 71.8566066,31.4611608 72.1268052,31.1966533 C72.3911874,30.9373357 72.5183586,30.6339932 72.5151969,30.2685505 C72.5119875,29.9032867 72.379519,29.6017339 72.1103048,29.3472483 M86.312174,4.20091971 L86.6028894,4.20334457 C88.4789607,4.23206629 90.9976497,4.52500094 93.0198564,5.66879695 C94.1115316,6.32702336 97.4416776,8.55958848 97.5093256,14.2890932 C97.5184528,15.0636457 97.4891028,16.9223568 96.4163978,17.8640608 C95.5985363,18.5967359 94.3098227,18.7150305 93.5354492,18.7241577 L76.8627067,18.9208382 C76.8299564,20.5214844 76.9625681,23.0493387 77.3926165,24.489813 C78.0379576,26.7023342 79.9263766,29.2096078 83.5400002,29.1668356 L86.5916796,29.1312219 L86.6203137,31.5572462 L83.5686343,31.5932178 C81.3485966,31.6193464 78.4513624,31.0854993 76.3018362,28.3228454 C74.1532048,25.6120908 74.0094974,22.1552389 73.9620722,18.1287473 C73.9171524,14.3093161 74.0687342,9.66092761 77.4931938,6.72951145 C79.9469573,4.63564277 83.2975052,4.23476535 86.0331356,4.20237302 L86.312174,4.20091971 Z M86.3320585,6.62908987 L86.0858449,6.62955962 C85.9221133,6.63036588 85.7592505,6.63204813 85.5975394,6.63394514 C82.8610141,6.6661585 79.9202918,6.80413908 78.0478005,10.0269072 C76.9856543,11.8464254 76.8537585,13.80983 76.8338936,16.4948139 L93.5068151,16.2981334 C94.6940566,16.2839953 94.6246189,14.8394049 94.6205027,14.4778994 C94.5888262,11.7941682 93.6388899,9.99827312 92.6970069,8.92521016 C90.9069103,6.85534043 88.5532086,6.63226289 86.3320585,6.62908987 Z M146.463795,6.81050748 C149.49203,9.71722672 149.962167,14.5644432 149.99778,17.6102168 C150.068113,23.5462451 148.456192,26.9207739 146.72186,28.6966251 C143.762168,31.6743927 139.066891,31.8843165 136.641046,31.9127716 L136.427597,31.9148506 L136.203569,31.9159285 L135.969515,31.9156305 C133.421418,31.9037797 129.256229,31.5930821 126.487393,28.935183 C124.711005,27.2006723 123.020161,23.8653363 122.950008,17.9291291 C122.914215,14.8835345 123.269994,10.0262961 126.229507,7.04906534 C128.882099,4.38484114 132.852754,3.97662623 136.311395,3.93564367 C139.769142,3.89501904 143.748387,4.20945727 146.463795,6.81050748 Z M136.871186,6.35893433 L136.601955,6.35953451 C136.513395,6.36004394 136.426051,6.36083874 136.34003,6.3618469 C133.758307,6.39227063 129.993102,6.64317695 127.903886,8.99099432 C125.76474,11.4426103 125.815744,15.7785291 125.843842,18.1528331 C125.870149,20.3726918 125.867286,24.502982 128.16732,26.9535242 C130.216639,29.1459896 133.368616,29.4812568 136.046427,29.4895876 L136.331449,29.4892989 C136.425804,29.4888321 136.519482,29.488018 136.612411,29.4869263 C139.399762,29.4539971 142.855361,29.1553077 144.995045,26.7550541 C147.237274,24.2508229 147.136339,20.1217855 147.11021,17.9022847 C147.082292,15.5278018 147.031108,11.191883 144.834694,8.79127146 C142.833814,6.64657725 139.416145,6.36266695 136.871186,6.35893433 Z M121.858741,4.20089896 L121.882901,6.25521679 L111.321213,6.38013306 L111.617397,31.4970722 L109.267253,31.5249905 L108.971248,6.40769338 L98.4092015,6.53207276 L98.3850415,4.47775493 L121.858741,4.20089896 Z M22.8677257,0.00549727234 C28.7858576,-0.0642983504 35.594868,0.473843797 40.2411089,4.92447801 C45.4237024,9.89911628 46.2283206,18.1938786 46.2898839,23.4054641 C46.3838396,31.3748715 44.7037337,36.6374614 42.5431117,40.0066214 L42.544,40.005 L42.5971309,39.8994449 C42.828056,39.4388001 43.2319753,38.6013997 43.6222579,37.6216595 L43.7194364,37.3738947 C43.867081,36.993956 44.0086408,36.5943313 44.1373153,36.1936328 C44.5158224,34.9901058 44.6061988,34.1797607 44.6142521,33.7031819 C44.6212317,33.3474031 44.5823967,33.1809674 44.5823967,33.1809674 L43.5785924,33.0320701 C43.5785924,33.0320701 44.6115676,30.6908744 44.3357855,27.6042972 C44.148769,27.6867992 43.9476144,27.7632164 43.7571976,27.8272852 C43.2870615,27.9874572 42.8740146,28.0833815 42.8740146,28.0833815 C42.8740146,28.0833815 43.5827086,25.8178872 41.7148703,21.9512097 C41.4997567,22.0827476 41.3454904,22.1783139 41.2368598,22.2472147 C40.9569615,22.4208089 40.9548139,22.42063 40.9548139,22.42063 C40.9548139,22.42063 40.3107256,19.9702667 38.3444576,17.4615615 C37.7680174,16.7281706 37.080262,15.9906635 36.2584633,15.3091719 C36.0225899,15.9428803 35.4454338,16.3704232 35.4454338,16.3704232 C35.4454338,16.3704232 35.3627528,16.1216645 35.1798525,15.7250822 C34.9812034,15.2952127 34.6721341,14.6876329 34.2139885,14.012405 C33.7513688,13.3307344 33.1416413,12.5862478 32.3683416,11.8924077 C31.740539,11.3295686 31.0067901,10.8001957 30.1456195,10.3731896 C29.8601733,11.2137795 29.5371448,11.4841928 29.5371448,11.4841928 L29.5134952,11.4640561 C29.4823424,11.437543 29.4211767,11.3855244 29.3345586,11.3120302 C28.5771866,10.6695526 25.8182909,8.3625388 23.7344441,7.07955208 C23.7344441,7.07955208 26.4008159,10.5693332 25.8791384,15.3494386 C25.7259459,16.7476775 24.4207678,19.4095752 23.9737179,23.2660518 L24.040829,23.0983634 L25.2817594,23.7417358 C27.2703978,24.7736373 28.5295824,25.8855352 29.3111144,26.7932362 L29.9475073,25.663442 L31.1258006,26.9763155 C32.3497295,28.3400146 33.1010167,29.7631295 33.536792,30.8009367 L33.8771798,30.6162467 L34.5359431,31.1696008 C34.6118235,31.2334906 34.818168,31.4231915 35.0860758,31.7968665 C35.5583595,32.4513347 35.9889448,33.3268224 36.366557,34.4048963 C36.5099065,34.8206277 36.6428761,35.2470968 36.7613497,35.6707026 C36.9360177,36.2918836 37.0777565,36.8853254 37.1881768,37.3955493 L37.5507561,37.2520208 C37.7608588,32.1916592 37.2128737,26.2241335 34.682156,20.7015101 C34.811702,20.8806684 39.5689019,27.5474704 38.997852,39.8301638 C38.9901566,40.0119903 38.9829981,40.1902376 38.9713655,40.3736748 C38.9414786,40.8991106 38.9033595,41.4352841 38.8502074,41.9839851 C38.8360693,42.1502418 38.8147727,42.3211516 38.7959816,42.4915245 C38.740682,43.0226871 38.6674861,43.5685247 38.5910688,44.1174046 C38.1830329,44.3994505 37.7624695,44.6557257 37.3354635,44.896968 C37.2728264,44.3028104 37.2302331,43.7299494 37.2255801,43.2284947 C37.2245063,43.0756602 37.225938,42.9290894 37.2316648,42.7905719 C37.231128,42.7860979 37.2316648,42.7825186 37.2322017,42.7785814 C37.2432974,42.5461083 37.2506349,42.3238361 37.2602989,42.1063959 C37.3169945,40.6031914 37.3277666,39.4992884 37.3293541,38.9989539 L37.3291998,38.7010853 L36.2326926,39.1363237 C36.2326926,39.1363237 36.225892,39.1016048 36.2153332,39.0443366 C36.1607494,38.707707 35.9425934,37.4325946 35.5435056,36.013417 C35.4334433,35.620235 35.3079901,35.2150624 35.1701885,34.8177643 C34.7540992,33.6269436 34.3399785,32.9241553 34.0602591,32.5377739 C33.8539146,32.2492853 33.7218398,32.1379703 33.7218398,32.1379703 L32.8298876,32.6202759 C32.8298876,32.6202759 32.2539842,30.1273195 30.1846335,27.8212005 C30.0845931,27.9990898 29.968625,28.1809164 29.8544465,28.3460994 C29.5743692,28.7559249 29.3005556,29.0800272 29.3005556,29.0800272 C29.3005556,29.0800272 28.5109702,26.8420932 24.6988765,24.8650874 C24.64304,25.0053229 24.5966742,25.1224937 24.5586968,25.2196148 L24.4936058,25.3880177 C24.3737005,25.6951184 24.371195,25.6961922 24.371195,25.6961922 C24.371195,25.6961922 22.3884624,24.1200639 19.3108334,23.289317 C18.409575,23.0473589 17.4170455,22.8694695 16.35132,22.8156016 C16.5419157,23.464164 16.3364661,24.1519193 16.3364661,24.1519193 C16.3364661,24.1519193 16.1206365,24.003022 15.7365816,23.7952458 C15.3204923,23.5697523 14.7079015,23.2681994 13.9367494,23.0019022 C13.1584387,22.7334575 12.2244301,22.503132 11.1887704,22.410608 C10.3492544,22.3358014 9.44477469,22.3511923 8.49984933,22.5260392 C8.77437878,23.3696715 8.67809662,23.779676 8.67809662,23.779676 C8.67809662,23.779676 8.58235134,23.7734123 8.41179947,23.7635693 C7.42159644,23.7029008 3.82980632,23.5085469 1.39286531,23.7290294 C1.39286531,23.7290294 5.61836389,24.9262928 8.06478995,29.0658891 C9.58848208,31.6497588 10.3718037,41.969668 25.604251,47.8180043 C24.808044,47.8559445 24.07,47.8738408 23.4321754,47.8815362 C23.4089102,47.8817152 23.3817078,47.8817152 23.3580847,47.8820731 L23.3256923,47.8822521 C19.1456504,47.9269929 11.1977186,47.7199325 6.05682357,42.7857399 C3.01785057,39.8176363 0.123658751,34.1096071 0.00393241369,23.9513017 C-0.0576309048,18.7397162 0.550843755,10.4283103 5.61532152,5.33287188 C10.1554373,0.773786012 16.9490569,0.0752928951 22.8677257,0.00549727234 Z M15.6707232,28.3120964 C15.8548051,28.3693669 23.672962,30.8487448 30.5860478,41.042818 C30.6884147,41.193147 30.7893499,41.3397178 30.8902851,41.4936261 C31.1816371,41.9326227 31.4717363,42.3843256 31.7578984,42.8557145 C31.8461272,42.9969164 31.9318506,43.1467086 32.0186477,43.2947111 C32.4089663,43.9472107 32.7905157,44.6249441 33.1686648,45.329343 C33.2477665,45.4778824 33.3236469,45.6369806 33.4023906,45.7869517 C32.8493945,46.042869 32.2892399,46.2728366 31.7231795,46.475065 L31.5395899,46.0953052 L31.4427443,45.8995195 C31.0984192,45.2110483 30.7091744,44.4731833 30.2732202,43.6995257 C30.0604331,43.3176184 29.8354764,42.9272998 29.5974554,42.5300016 C29.2218118,41.89683 28.8171761,41.2495204 28.3826537,40.5889674 C25.4932938,36.2040127 21.3227369,31.3904413 15.6707232,28.3120964 Z" id="Logo" fill="#96C72C"></path>
                    <g id="SELECT-HERBS-&amp;-LETTU" transform="translate(54.4297, 37.1328)" fill="#373938">
                        <path d="M0,1.69140625 C0,0.56640625 0.561197917,0.00390625 1.68359375,0.00390625 C2.80859375,0.00390625 3.37109375,0.56640625 3.37109375,1.69140625 L3.37109375,2.80078125 L2.0703125,2.80078125 L2.0703125,1.69140625 C2.0703125,1.39973958 1.94270833,1.25260417 1.6875,1.25 L1.6796875,1.25 C1.42708333,1.25 1.30078125,1.39713542 1.30078125,1.69140625 L1.30078125,2.38671875 C1.30078125,2.70442708 1.63411458,3.10286458 2.30078125,3.58203125 C3.01432292,4.08984375 3.37109375,4.69921875 3.37109375,5.41015625 L3.37109375,6.37890625 C3.37109375,7.50651042 2.80989583,8.0703125 1.6875,8.0703125 C0.5625,8.06770833 0,7.50390625 0,6.37890625 L0,5.26953125 L1.30078125,5.26953125 L1.30078125,6.37890625 C1.30078125,6.67317708 1.4296875,6.8203125 1.6875,6.8203125 C1.94270833,6.8203125 2.0703125,6.67317708 2.0703125,6.37890625 L2.0703125,5.50390625 C2.0703125,5.15755208 1.73697917,4.74479167 1.0703125,4.265625 C0.356770833,3.7578125 0,3.13932292 0,2.41015625 L0,1.69140625 Z" id="Path"></path>
                        <polygon id="Path" points="4.70859375 0.125 7.77109375 0.125 7.77109375 1.37109375 6.009375 1.37109375 6.009375 3.41015625 7.525 3.41015625 7.525 4.66015625 6.009375 4.66015625 6.009375 6.69921875 7.77109375 6.69921875 7.77109375 7.9453125 4.70859375 7.9453125"></polygon>
                        <polygon id="Path" points="8.99140625 7.9453125 8.99140625 0.125 10.2921875 0.125 10.2921875 6.69921875 12.0539063 6.69921875 12.0539063 7.9453125"></polygon>
                        <polygon id="Path" points="13.1179687 0.125 16.1804687 0.125 16.1804687 1.37109375 14.41875 1.37109375 14.41875 3.41015625 15.934375 3.41015625 15.934375 4.66015625 14.41875 4.66015625 14.41875 6.69921875 16.1804687 6.69921875 16.1804687 7.9453125 13.1179687 7.9453125"></polygon>
                        <path d="M20.69375,6.37890625 C20.69375,7.50390625 20.13125,8.06770833 19.00625,8.0703125 C17.8838542,8.0703125 17.3226562,7.50651042 17.3226562,6.37890625 L17.3226562,1.69140625 C17.3226562,0.56640625 17.8838542,0.00390625 19.00625,0.00390625 C20.13125,0.00390625 20.69375,0.56640625 20.69375,1.69140625 L20.69375,2.80078125 L19.3929687,2.80078125 L19.3929687,1.69140625 C19.3929687,1.39973958 19.2653646,1.25260417 19.0101562,1.25 L19.0023437,1.25 C18.7497396,1.25 18.6234375,1.39713542 18.6234375,1.69140625 L18.6234375,6.37890625 C18.6234375,6.67317708 18.7510417,6.8203125 19.00625,6.8203125 C19.2640625,6.8203125 19.3929687,6.67317708 19.3929687,6.37890625 L19.3929687,5.26953125 L20.69375,5.26953125 L20.69375,6.37890625 Z" id="Path"></path>
                        <polygon id="Path" points="25.0507812 0.125 25.0507812 1.37109375 24.015625 1.37109375 24.015625 7.9453125 22.7148438 7.9453125 22.7148438 1.37109375 21.6796875 1.37109375 21.6796875 0.125"></polygon>
                        <polygon id="Path" points="28.5382813 0.125 29.8390625 0.125 29.8390625 3.41015625 30.6085938 3.41015625 30.6085938 0.125 31.909375 0.125 31.909375 7.9453125 30.6085938 7.9453125 30.6085938 4.66015625 29.8390625 4.66015625 29.8390625 7.9453125 28.5382813 7.9453125"></polygon>
                        <polygon id="Path" points="33.325 0.125 36.3875 0.125 36.3875 1.37109375 34.6257812 1.37109375 34.6257812 3.41015625 36.1414062 3.41015625 36.1414062 4.66015625 34.6257812 4.66015625 34.6257812 6.69921875 36.3875 6.69921875 36.3875 7.9453125 33.325 7.9453125"></polygon>
                        <path d="M37.6078125,0.125 L39.3148437,0.125 C40.3617187,0.127604167 40.8851562,0.69140625 40.8851562,1.81640625 L40.8851562,2.96875 C40.8851562,3.67708333 40.6013021,4.13541667 40.0335937,4.34375 L41.2875,7.9453125 L39.8695312,7.9453125 L38.9789062,4.58203125 L38.9085937,4.58203125 L38.9085937,7.9453125 L37.6078125,7.9453125 L37.6078125,0.125 Z M38.9085937,1.37109375 L38.9085937,3.41015625 L39.0648437,3.41015625 C39.2054687,3.41015625 39.2966146,3.40234375 39.3382812,3.38671875 C39.5023437,3.32161458 39.584375,3.18229167 39.584375,2.96875 L39.584375,1.81640625 C39.584375,1.51953125 39.4567708,1.37109375 39.2015625,1.37109375 L38.9085937,1.37109375 Z" id="Shape"></path>
                        <path d="M42.3125,0.125 L44.1132812,0.125 C45.1601562,0.127604167 45.6835938,0.69140625 45.6835938,1.81640625 L45.6835938,2.96875 C45.6835938,3.5 45.5091146,3.85546875 45.1601562,4.03515625 C45.5091146,4.21484375 45.6835938,4.5703125 45.6835938,5.1015625 L45.6835938,6.2578125 C45.6835938,7.38020833 45.1380208,7.94270833 44.046875,7.9453125 L42.3125,7.9453125 L42.3125,0.125 Z M43.6132812,1.37109375 L43.6132812,3.41015625 L43.8632812,3.41015625 C44.0039062,3.41015625 44.0950521,3.40234375 44.1367188,3.38671875 C44.3007812,3.32161458 44.3828125,3.18229167 44.3828125,2.96875 L44.3828125,1.81640625 C44.3828125,1.51953125 44.2552083,1.37109375 44,1.37109375 L43.6132812,1.37109375 Z M43.6132812,4.66015625 L43.6132812,6.69921875 L44,6.69921875 C44.2552083,6.69921875 44.3828125,6.55208333 44.3828125,6.2578125 L44.3828125,5.1015625 C44.3828125,4.88802083 44.3007812,4.75 44.1367188,4.6875 C44.0924479,4.66927083 44.0013021,4.66015625 43.8632812,4.66015625 L43.6132812,4.66015625 Z" id="Shape"></path>
                        <path d="M46.9039063,1.69140625 C46.9039063,0.56640625 47.4651042,0.00390625 48.5875,0.00390625 C49.7125,0.00390625 50.275,0.56640625 50.275,1.69140625 L50.275,2.80078125 L48.9742188,2.80078125 L48.9742188,1.69140625 C48.9742188,1.39973958 48.8466146,1.25260417 48.5914063,1.25 L48.5835938,1.25 C48.3309896,1.25 48.2046875,1.39713542 48.2046875,1.69140625 L48.2046875,2.38671875 C48.2046875,2.70442708 48.5380208,3.10286458 49.2046875,3.58203125 C49.9182292,4.08984375 50.275,4.69921875 50.275,5.41015625 L50.275,6.37890625 C50.275,7.50651042 49.7138021,8.0703125 48.5914063,8.0703125 C47.4664063,8.06770833 46.9039063,7.50390625 46.9039063,6.37890625 L46.9039063,5.26953125 L48.2046875,5.26953125 L48.2046875,6.37890625 C48.2046875,6.67317708 48.3335938,6.8203125 48.5914063,6.8203125 C48.8466146,6.8203125 48.9742188,6.67317708 48.9742188,6.37890625 L48.9742188,5.50390625 C48.9742188,5.15755208 48.6408854,4.74479167 47.9742188,4.265625 C47.2606771,3.7578125 46.9039063,3.13932292 46.9039063,2.41015625 L46.9039063,1.69140625 Z" id="Path"></path>
                        <path d="M55.3796875,6.6640625 C55.4265625,6.6875 55.5111979,6.69921875 55.6335937,6.69921875 C55.6622396,6.69921875 55.6934896,6.69791667 55.7273437,6.6953125 C55.9278646,6.6875 56.028125,6.54036458 56.028125,6.25390625 L56.028125,4.53515625 L55.6453125,4.53515625 C55.590625,4.53776042 55.54375,4.546875 55.5046875,4.5625 C55.340625,4.625 55.2585937,4.76302083 55.2585937,4.9765625 L55.2585937,6.25390625 C55.2585937,6.49609375 55.2989583,6.6328125 55.3796875,6.6640625 Z M56.028125,3.2890625 L56.028125,2.765625 L57.3289062,2.765625 L57.3289062,3.2890625 L58.0320312,3.2890625 L58.0320312,4.53515625 L57.3289062,4.53515625 L57.3289062,6.25390625 C57.3289062,7.33463542 56.8484375,7.89583333 55.8875,7.9375 C55.7963542,7.94010417 55.7104167,7.94140625 55.6296875,7.94140625 C55.465625,7.94140625 55.3236979,7.93489583 55.2039062,7.921875 C54.3731771,7.82291667 53.9578125,7.26692708 53.9578125,6.25390625 L53.9578125,4.9765625 C53.9578125,4.4453125 54.1322917,4.08984375 54.48125,3.91015625 C54.1322917,3.73046875 53.9578125,3.375 53.9578125,2.84375 L53.9578125,1.69140625 C53.9578125,0.647135417 54.4005208,0.0872395833 55.2859375,0.01171875 C55.4005208,0.00390625 55.5177083,0 55.6375,0 C55.7390625,0 55.8432292,0.00260416667 55.95,0.0078125 C56.8692708,0.0703125 57.3289062,0.631510417 57.3289062,1.69140625 L57.3289062,2.09765625 L56.028125,2.09765625 L56.028125,1.69140625 C56.028125,1.42057292 55.9630208,1.27604167 55.8328125,1.2578125 C55.778125,1.24739583 55.7182292,1.2421875 55.653125,1.2421875 C55.5984375,1.2421875 55.5398437,1.24609375 55.4773437,1.25390625 C55.3315104,1.26953125 55.2585937,1.41536458 55.2585937,1.69140625 L55.2585937,2.84375 C55.2585937,3.05729167 55.340625,3.19661458 55.5046875,3.26171875 C55.54375,3.27734375 55.590625,3.28645833 55.6453125,3.2890625 L56.028125,3.2890625 Z" id="Shape"></path>
                        <polygon id="Path" points="61.5976562 7.9453125 61.5976562 0.125 62.8984375 0.125 62.8984375 6.69921875 64.6601562 6.69921875 64.6601562 7.9453125"></polygon>
                        <polygon id="Path" points="65.7242188 0.125 68.7867188 0.125 68.7867188 1.37109375 67.025 1.37109375 67.025 3.41015625 68.540625 3.41015625 68.540625 4.66015625 67.025 4.66015625 67.025 6.69921875 68.7867188 6.69921875 68.7867188 7.9453125 65.7242188 7.9453125"></polygon>
                        <polygon id="Path" points="73.065625 0.125 73.065625 1.37109375 72.0304688 1.37109375 72.0304688 7.9453125 70.7296875 7.9453125 70.7296875 1.37109375 69.6945313 1.37109375 69.6945313 0.125"></polygon>
                        <polygon id="Path" points="77.2273437 0.125 77.2273437 1.37109375 76.1921875 1.37109375 76.1921875 7.9453125 74.8914062 7.9453125 74.8914062 1.37109375 73.85625 1.37109375 73.85625 0.125"></polygon>
                        <path d="M81.6625,6.37890625 C81.6625,7.50390625 81.1,8.06770833 79.975,8.0703125 C78.8526042,8.0703125 78.2914062,7.50651042 78.2914062,6.37890625 L78.2914062,0.125 L79.5921875,0.125 L79.5921875,6.37890625 C79.5921875,6.67317708 79.7197917,6.8203125 79.975,6.8203125 C80.2328125,6.8203125 80.3617187,6.67317708 80.3617187,6.37890625 L80.3617187,0.125 L81.6625,0.125 L81.6625,6.37890625 Z" id="Path"></path>
                        <path d="M86.3320312,6.37890625 C86.3320312,7.50390625 85.7695312,8.06770833 84.6445312,8.0703125 C83.5221354,8.0703125 82.9609375,7.50651042 82.9609375,6.37890625 L82.9609375,1.69140625 C82.9609375,0.56640625 83.5221354,0.00390625 84.6445312,0.00390625 C85.7695312,0.00390625 86.3320312,0.56640625 86.3320312,1.69140625 L86.3320312,2.80078125 L85.03125,2.80078125 L85.03125,1.69140625 C85.03125,1.39973958 84.9036458,1.25260417 84.6484375,1.25 L84.640625,1.25 C84.3880208,1.25 84.2617188,1.39713542 84.2617188,1.69140625 L84.2617188,6.37890625 C84.2617188,6.67317708 84.3893229,6.8203125 84.6445312,6.8203125 C84.9023438,6.8203125 85.03125,6.67317708 85.03125,6.37890625 L85.03125,5.26953125 L86.3320312,5.26953125 L86.3320312,6.37890625 Z" id="Path"></path>
                        <polygon id="Path" points="87.6304688 0.125 90.6929688 0.125 90.6929688 1.37109375 88.93125 1.37109375 88.93125 3.41015625 90.446875 3.41015625 90.446875 4.66015625 88.93125 4.66015625 88.93125 6.69921875 90.6929688 6.69921875 90.6929688 7.9453125 87.6304688 7.9453125"></polygon>
                        <path d="M91.8351563,1.69140625 C91.8351563,0.56640625 92.3963542,0.00390625 93.51875,0.00390625 C94.64375,0.00390625 95.20625,0.56640625 95.20625,1.69140625 L95.20625,2.80078125 L93.9054688,2.80078125 L93.9054688,1.69140625 C93.9054688,1.39973958 93.7778646,1.25260417 93.5226563,1.25 L93.5148438,1.25 C93.2622396,1.25 93.1359375,1.39713542 93.1359375,1.69140625 L93.1359375,2.38671875 C93.1359375,2.70442708 93.4692708,3.10286458 94.1359375,3.58203125 C94.8494792,4.08984375 95.20625,4.69921875 95.20625,5.41015625 L95.20625,6.37890625 C95.20625,7.50651042 94.6450521,8.0703125 93.5226563,8.0703125 C92.3976563,8.06770833 91.8351563,7.50390625 91.8351563,6.37890625 L91.8351563,5.26953125 L93.1359375,5.26953125 L93.1359375,6.37890625 C93.1359375,6.67317708 93.2648438,6.8203125 93.5226563,6.8203125 C93.7778646,6.8203125 93.9054688,6.67317708 93.9054688,6.37890625 L93.9054688,5.50390625 C93.9054688,5.15755208 93.5721354,4.74479167 92.9054688,4.265625 C92.1919271,3.7578125 91.8351563,3.13932292 91.8351563,2.41015625 L91.8351563,1.69140625 Z" id="Path"></path>
                    </g>
                </g>
            </g>
        </g>
    </g>
</svg>