<svg id="Iphone_Mobile_Phone" data-name="Iphone, Mobile, Phone" xmlns="http://www.w3.org/2000/svg" width="24" height="24" viewBox="0 0 24 24">
  <path id="Path" d="M0,0H24V24H0Z" fill="none"/>
  <path id="Path-2" data-name="Path" d="M10,18H2a2,2,0,0,1-2-2V2A2,2,0,0,1,2,0h8a2,2,0,0,1,2,2V16A2,2,0,0,1,10,18Z" transform="translate(6 3)" fill="none" stroke="#96c72c" stroke-linecap="round" stroke-linejoin="round" stroke-miterlimit="10" stroke-width="1.5"/>
  <path id="Path-3" data-name="Path" d="M.5.25A.25.25,0,1,0,.75.5.249.249,0,0,0,.5.25" transform="translate(11.5 17)" fill="none" stroke="#96c72c" stroke-linecap="round" stroke-linejoin="round" stroke-miterlimit="10" stroke-width="1.5"/>
  <path id="Path-4" data-name="Path" d="M0,.5H2.5" transform="translate(10.75 5.5)" fill="none" stroke="#96c72c" stroke-linecap="round" stroke-linejoin="round" stroke-miterlimit="10" stroke-width="1.5"/>
</svg>
