<svg xmlns="http://www.w3.org/2000/svg" width="65.709" height="68" viewBox="0 0 65.709 68">
  <g id="Supply_chain" data-name="Supply chain" transform="translate(1.5 1.5)">
    <path id="path2092" d="M-5.09,0H0V47.684H-5.09Z" transform="translate(0 65) rotate(-180)" fill="none" stroke="#96c72c" stroke-linecap="round" stroke-linejoin="round" stroke-miterlimit="10" stroke-width="3"/>
    <path id="path2094" d="M-5.09,0H0V47.684H-5.09Z" transform="translate(57.619 65) rotate(-180)" fill="none" stroke="#96c72c" stroke-linecap="round" stroke-linejoin="round" stroke-miterlimit="10" stroke-width="3"/>
    <path id="path2096" d="M0,.05H-52.528" transform="translate(5.09 25.686) rotate(-180)" fill="none" stroke="#96c72c" stroke-linecap="round" stroke-linejoin="round" stroke-miterlimit="10" stroke-width="3"/>
    <path id="path2098" d="M0,.05H-52.528" transform="translate(5.09 59.523) rotate(-180)" fill="none" stroke="#96c72c" stroke-linecap="round" stroke-linejoin="round" stroke-miterlimit="10" stroke-width="3"/>
    <path id="path2100" d="M-11.826,3.728a3.69,3.69,0,0,0,.5.748,3.569,3.569,0,0,0-.881,2.351,3.591,3.591,0,0,0,2.467,3.41,3.554,3.554,0,0,0-.381,1.6,3.594,3.594,0,0,0,3.593,3.6,3.593,3.593,0,0,0,3.6-3.6,3.594,3.594,0,0,0-.149-1.016A3.6,3.6,0,0,0-.565,7.395,3.586,3.586,0,0,0-1.47,5.017,3.583,3.583,0,0,0,0,2.124,3.579,3.579,0,0,0-.692,0" transform="translate(10.032 15.435) rotate(-180)" fill="none" stroke="#96c72c" stroke-linecap="round" stroke-linejoin="round" stroke-miterlimit="10" stroke-width="3"/>
    <path id="path2102" d="M-2.251,0,0,9.97H-12.815L-10.567,0" transform="translate(9.726 25.6) rotate(-180)" fill="none" stroke="#96c72c" stroke-linecap="round" stroke-linejoin="round" stroke-miterlimit="10" stroke-width="3"/>
    <path id="path2104" d="M-10.95,0a3.579,3.579,0,0,0-.692,2.124,3.592,3.592,0,0,0,.881,2.353,3.569,3.569,0,0,0-.881,2.351,3.591,3.591,0,0,0,2.467,3.41,3.554,3.554,0,0,0-.381,1.6,3.594,3.594,0,0,0,3.593,3.6,3.593,3.593,0,0,0,3.6-3.6,3.594,3.594,0,0,0-.149-1.016A3.6,3.6,0,0,0,0,7.395c0-.124-.008-.249-.019-.367" transform="translate(25.716 15.435) rotate(-180)" fill="none" stroke="#96c72c" stroke-linecap="round" stroke-linejoin="round" stroke-miterlimit="10" stroke-width="3"/>
    <path id="path2106" d="M-2.248,0,0,9.97H-12.812L-10.561,0" transform="translate(24.848 25.6) rotate(-180)" fill="none" stroke="#96c72c" stroke-linecap="round" stroke-linejoin="round" stroke-miterlimit="10" stroke-width="3"/>
    <path id="path2108" d="M-12,5.641a3.585,3.585,0,0,0-.2,1.186,3.59,3.59,0,0,0,2.469,3.41,3.521,3.521,0,0,0-.384,1.6,3.6,3.6,0,0,0,3.6,3.6,3.592,3.592,0,0,0,3.593-3.6,3.594,3.594,0,0,0-.149-1.016A3.6,3.6,0,0,0-.565,7.395,3.586,3.586,0,0,0-1.47,5.017,3.583,3.583,0,0,0,0,2.124,3.579,3.579,0,0,0-.692,0" transform="translate(40.27 15.435) rotate(-180)" fill="none" stroke="#96c72c" stroke-linecap="round" stroke-linejoin="round" stroke-miterlimit="10" stroke-width="3"/>
    <path id="path2110" d="M-2.245,0,0,9.97H-12.812L-10.564,0" transform="translate(39.968 25.6) rotate(-180)" fill="none" stroke="#96c72c" stroke-linecap="round" stroke-linejoin="round" stroke-miterlimit="10" stroke-width="3"/>
    <path id="path2112" d="M-10.95,0a3.579,3.579,0,0,0-.692,2.124,3.592,3.592,0,0,0,.881,2.353,3.579,3.579,0,0,0-.881,2.351,3.591,3.591,0,0,0,2.467,3.41,3.554,3.554,0,0,0-.381,1.6,3.594,3.594,0,0,0,3.593,3.6,3.593,3.593,0,0,0,3.6-3.6,3.594,3.594,0,0,0-.149-1.016A3.6,3.6,0,0,0,0,7.395a3.523,3.523,0,0,0-.124-.929" transform="translate(10.596 49.273) rotate(-180)" fill="none" stroke="#96c72c" stroke-linecap="round" stroke-linejoin="round" stroke-miterlimit="10" stroke-width="3"/>
    <path id="path2114" d="M-2.251,0,0,9.972H-12.815L-10.567,0" transform="translate(9.726 59.437) rotate(-180)" fill="none" stroke="#96c72c" stroke-linecap="round" stroke-linejoin="round" stroke-miterlimit="10" stroke-width="3"/>
    <path id="path2116" d="M-11.969,8.116A3.606,3.606,0,0,0-9.74,10.237a3.554,3.554,0,0,0-.381,1.6,3.594,3.594,0,0,0,3.593,3.6,3.593,3.593,0,0,0,3.6-3.6,3.594,3.594,0,0,0-.149-1.016A3.6,3.6,0,0,0-.565,7.395,3.586,3.586,0,0,0-1.47,5.017,3.583,3.583,0,0,0,0,2.124,3.579,3.579,0,0,0-.692,0" transform="translate(25.151 49.273) rotate(-180)" fill="none" stroke="#96c72c" stroke-linecap="round" stroke-linejoin="round" stroke-miterlimit="10" stroke-width="3"/>
    <path id="path2118" d="M-2.248,0,0,9.972H-12.812L-10.561,0" transform="translate(24.848 59.437) rotate(-180)" fill="none" stroke="#96c72c" stroke-linecap="round" stroke-linejoin="round" stroke-miterlimit="10" stroke-width="3"/>
    <path id="path2120" d="M-11.115,0a3.579,3.579,0,0,0-.692,2.124,3.58,3.58,0,0,0,.883,2.353,3.568,3.568,0,0,0-.883,2.351,3.59,3.59,0,0,0,2.469,3.41,3.521,3.521,0,0,0-.384,1.6,3.6,3.6,0,0,0,3.6,3.6,3.592,3.592,0,0,0,3.593-3.6,3.594,3.594,0,0,0-.149-1.016A3.6,3.6,0,0,0-.165,7.395,3.586,3.586,0,0,0-1.07,5.017,3.614,3.614,0,0,0,0,3.769" transform="translate(40.67 49.273) rotate(-180)" fill="none" stroke="#96c72c" stroke-linecap="round" stroke-linejoin="round" stroke-miterlimit="10" stroke-width="3"/>
    <path id="path2122" d="M-2.245,0,0,9.972H-12.812L-10.564,0" transform="translate(39.968 59.437) rotate(-180)" fill="none" stroke="#96c72c" stroke-linecap="round" stroke-linejoin="round" stroke-miterlimit="10" stroke-width="3"/>
    <path id="path2124" d="M-.05,6.568V0" transform="translate(31.241 15.627) rotate(-180)" fill="none" stroke="#96c72c" stroke-linecap="round" stroke-linejoin="round" stroke-miterlimit="10" stroke-width="3"/>
    <path id="path2126" d="M-.05,6.568V0" transform="translate(16.122 15.627) rotate(-180)" fill="none" stroke="#96c72c" stroke-linecap="round" stroke-linejoin="round" stroke-miterlimit="10" stroke-width="3"/>
    <path id="path2128" d="M-.05,6.568V0" transform="translate(46.36 15.627) rotate(-180)" fill="none" stroke="#96c72c" stroke-linecap="round" stroke-linejoin="round" stroke-miterlimit="10" stroke-width="3"/>
    <path id="path2130" d="M-.05,6.571V0" transform="translate(46.36 49.375) rotate(-180)" fill="none" stroke="#96c72c" stroke-linecap="round" stroke-linejoin="round" stroke-miterlimit="10" stroke-width="3"/>
    <path id="path2132" d="M-.05,6.571V0" transform="translate(31.241 49.375) rotate(-180)" fill="none" stroke="#96c72c" stroke-linecap="round" stroke-linejoin="round" stroke-miterlimit="10" stroke-width="3"/>
    <path id="path2134" d="M-.05,6.571V0" transform="translate(16.122 49.375) rotate(-180)" fill="none" stroke="#96c72c" stroke-linecap="round" stroke-linejoin="round" stroke-miterlimit="10" stroke-width="3"/>
  </g>
</svg>
